<svg width="1117" height="1112" viewBox="0 0 1117 1112" fill="none" xmlns="http://www.w3.org/2000/svg">
<path d="M412.043 139.35L153.188 384.325L125.429 559.209L153.188 734.093L286.432 893.015L691.024 975.599L923.508 804.185L992.907 538.39L936.694 373.916L804.143 202.502L412.043 139.35Z" fill="url(#paint0_linear)"/>
<path d="M667.376 461.185L668.072 461.417L668.625 460.934L706.794 427.623L707.359 427.13L707.206 426.395L696.796 376.429L696.646 375.707L695.947 375.473L648.062 359.512L647.366 359.28L646.813 359.762L608.644 393.073L608.079 393.567L608.232 394.301L618.641 444.268L618.792 444.99L619.491 445.223L667.376 461.185ZM652.127 380.92L679.863 390.166L685.805 418.554L664.018 437.699L636.265 428.448L630.327 400.738L652.127 380.92Z" fill="black" stroke="black" stroke-width="2.56496"/>
<path d="M791.493 363.839L757.08 389.664L782.904 424.077L817.317 398.252L791.493 363.839Z" fill="black"/>
<path d="M463.908 248.345L440.928 292.715L485.299 315.695L508.279 271.325L463.908 248.345Z" fill="black"/>
<mask id="path-5-outside-1" maskUnits="userSpaceOnUse" x="-0.406128" y="289.024" width="1117" height="591" fill="black">
<rect fill="white" x="-0.406128" y="289.024" width="1117" height="591"/>
<path d="M1112.97 655.671L1068.55 561.29C1067.86 559.208 1066.47 557.82 1064.39 557.126L1006.09 528.672L1031.77 441.231C1033.16 437.761 1031.08 433.597 1028.3 431.515C1024.83 429.433 1020.67 429.433 1017.89 432.209L952.656 487.727C951.962 488.421 950.574 489.809 950.574 490.503L920.039 559.902L838.149 597.377L495.321 475.93L224.668 308.68C224.668 308.68 223.974 308.68 223.974 307.986H223.28H222.586H221.892L80.3199 292.024C78.238 292.024 76.85 292.024 74.7681 293.412L8.14573 332.969C7.45175 333.663 6.75777 334.357 6.06379 335.051C6.06379 335.051 6.06378 335.745 5.3698 335.745C4.67582 336.439 3.98184 337.133 3.98184 338.521C3.98184 339.215 3.98184 339.909 3.98184 340.603L2.59387 385.018C2.59387 385.712 2.59387 386.406 2.59387 387.794L34.5171 512.017C34.5171 512.711 35.2111 514.099 35.905 514.793L142.778 679.267C143.472 680.655 144.86 681.349 146.248 682.043L337.093 776.424C338.481 777.118 339.175 777.118 340.563 777.118L534.185 787.528C534.185 787.528 534.185 787.528 534.879 787.528C535.572 787.528 536.266 787.528 537.654 786.834L541.818 785.446L603.583 865.254C604.277 865.948 604.971 866.642 605.665 866.642L618.156 875.664C619.544 877.052 621.626 877.052 623.014 877.052C625.096 877.052 627.178 876.358 629.26 874.276L651.468 852.068C652.856 850.68 654.244 848.598 654.244 845.823L655.632 753.523L829.127 699.392C829.127 699.392 829.127 699.392 829.821 699.392C830.515 699.392 830.515 699.392 831.209 698.698L918.651 645.262L994.989 672.327C995.683 672.327 996.377 673.021 997.071 673.021L1069.94 679.267C1071.33 679.267 1072.72 679.267 1073.41 678.573L1108.8 666.081C1110.88 665.387 1112.97 663.305 1113.66 661.223C1113.66 660.529 1113.66 657.753 1112.97 655.671ZM965.842 499.525L1007.48 464.132L988.743 527.285L943.634 548.798L965.842 499.525ZM486.3 688.288L772.221 699.392L546.676 766.015L486.3 688.288ZM477.972 670.245L419.677 586.273L666.735 602.929L793.04 682.043L477.972 670.245ZM406.492 568.229L385.672 538.388L491.158 493.279L635.506 583.497L406.492 568.229ZM384.284 566.841L327.378 562.678L369.017 544.634L384.284 566.841ZM562.638 518.263L775.69 593.213L671.593 586.273L562.638 518.263ZM375.263 523.815L251.04 345.461L472.42 482.176L375.263 523.815ZM219.116 329.499L359.301 530.754L290.597 559.902L233.69 473.154L164.292 380.854L219.116 329.499ZM397.47 584.885L451.601 662.611L382.896 624.442L313.498 579.333L397.47 584.885ZM824.963 682.043L702.822 605.705L836.761 614.726L896.443 638.322L824.963 682.043ZM908.935 625.136L860.356 605.705L915.181 580.721L908.935 625.136ZM81.7079 309.374L201.073 322.56L151.106 369.75L75.462 326.03C74.0741 325.336 71.9921 324.642 69.9102 324.642L52.5606 326.724L81.7079 309.374ZM342.645 759.769L155.27 667.469L51.1727 505.771L19.9434 384.324L21.3314 347.543L67.8282 341.991L149.024 389.182L219.81 483.564L282.963 580.027C283.657 580.721 284.351 582.109 285.739 582.803L374.569 640.404L467.562 691.758L528.633 770.872L342.645 759.769ZM620.932 858.314L615.381 854.15L558.474 780.588L636.894 756.993L635.506 843.047L620.932 858.314ZM1068.55 663.305L998.459 657.753L925.591 631.382L934.613 572.393L996.377 543.246L1054.67 571.699L1093.53 654.283L1068.55 663.305Z"/>
</mask>
<path d="M1112.97 655.671L1068.55 561.29C1067.86 559.208 1066.47 557.82 1064.39 557.126L1006.09 528.672L1031.77 441.231C1033.16 437.761 1031.08 433.597 1028.3 431.515C1024.83 429.433 1020.67 429.433 1017.89 432.209L952.656 487.727C951.962 488.421 950.574 489.809 950.574 490.503L920.039 559.902L838.149 597.377L495.321 475.93L224.668 308.68C224.668 308.68 223.974 308.68 223.974 307.986H223.28H222.586H221.892L80.3199 292.024C78.238 292.024 76.85 292.024 74.7681 293.412L8.14573 332.969C7.45175 333.663 6.75777 334.357 6.06379 335.051C6.06379 335.051 6.06378 335.745 5.3698 335.745C4.67582 336.439 3.98184 337.133 3.98184 338.521C3.98184 339.215 3.98184 339.909 3.98184 340.603L2.59387 385.018C2.59387 385.712 2.59387 386.406 2.59387 387.794L34.5171 512.017C34.5171 512.711 35.2111 514.099 35.905 514.793L142.778 679.267C143.472 680.655 144.86 681.349 146.248 682.043L337.093 776.424C338.481 777.118 339.175 777.118 340.563 777.118L534.185 787.528C534.185 787.528 534.185 787.528 534.879 787.528C535.572 787.528 536.266 787.528 537.654 786.834L541.818 785.446L603.583 865.254C604.277 865.948 604.971 866.642 605.665 866.642L618.156 875.664C619.544 877.052 621.626 877.052 623.014 877.052C625.096 877.052 627.178 876.358 629.26 874.276L651.468 852.068C652.856 850.68 654.244 848.598 654.244 845.823L655.632 753.523L829.127 699.392C829.127 699.392 829.127 699.392 829.821 699.392C830.515 699.392 830.515 699.392 831.209 698.698L918.651 645.262L994.989 672.327C995.683 672.327 996.377 673.021 997.071 673.021L1069.94 679.267C1071.33 679.267 1072.72 679.267 1073.41 678.573L1108.8 666.081C1110.88 665.387 1112.97 663.305 1113.66 661.223C1113.66 660.529 1113.66 657.753 1112.97 655.671ZM965.842 499.525L1007.48 464.132L988.743 527.285L943.634 548.798L965.842 499.525ZM486.3 688.288L772.221 699.392L546.676 766.015L486.3 688.288ZM477.972 670.245L419.677 586.273L666.735 602.929L793.04 682.043L477.972 670.245ZM406.492 568.229L385.672 538.388L491.158 493.279L635.506 583.497L406.492 568.229ZM384.284 566.841L327.378 562.678L369.017 544.634L384.284 566.841ZM562.638 518.263L775.69 593.213L671.593 586.273L562.638 518.263ZM375.263 523.815L251.04 345.461L472.42 482.176L375.263 523.815ZM219.116 329.499L359.301 530.754L290.597 559.902L233.69 473.154L164.292 380.854L219.116 329.499ZM397.47 584.885L451.601 662.611L382.896 624.442L313.498 579.333L397.47 584.885ZM824.963 682.043L702.822 605.705L836.761 614.726L896.443 638.322L824.963 682.043ZM908.935 625.136L860.356 605.705L915.181 580.721L908.935 625.136ZM81.7079 309.374L201.073 322.56L151.106 369.75L75.462 326.03C74.0741 325.336 71.9921 324.642 69.9102 324.642L52.5606 326.724L81.7079 309.374ZM342.645 759.769L155.27 667.469L51.1727 505.771L19.9434 384.324L21.3314 347.543L67.8282 341.991L149.024 389.182L219.81 483.564L282.963 580.027C283.657 580.721 284.351 582.109 285.739 582.803L374.569 640.404L467.562 691.758L528.633 770.872L342.645 759.769ZM620.932 858.314L615.381 854.15L558.474 780.588L636.894 756.993L635.506 843.047L620.932 858.314ZM1068.55 663.305L998.459 657.753L925.591 631.382L934.613 572.393L996.377 543.246L1054.67 571.699L1093.53 654.283L1068.55 663.305Z" fill="black"/>
<path d="M1112.97 655.671L1068.55 561.29C1067.86 559.208 1066.47 557.82 1064.39 557.126L1006.09 528.672L1031.77 441.231C1033.16 437.761 1031.08 433.597 1028.3 431.515C1024.83 429.433 1020.67 429.433 1017.89 432.209L952.656 487.727C951.962 488.421 950.574 489.809 950.574 490.503L920.039 559.902L838.149 597.377L495.321 475.93L224.668 308.68C224.668 308.68 223.974 308.68 223.974 307.986H223.28H222.586H221.892L80.3199 292.024C78.238 292.024 76.85 292.024 74.7681 293.412L8.14573 332.969C7.45175 333.663 6.75777 334.357 6.06379 335.051C6.06379 335.051 6.06378 335.745 5.3698 335.745C4.67582 336.439 3.98184 337.133 3.98184 338.521C3.98184 339.215 3.98184 339.909 3.98184 340.603L2.59387 385.018C2.59387 385.712 2.59387 386.406 2.59387 387.794L34.5171 512.017C34.5171 512.711 35.2111 514.099 35.905 514.793L142.778 679.267C143.472 680.655 144.86 681.349 146.248 682.043L337.093 776.424C338.481 777.118 339.175 777.118 340.563 777.118L534.185 787.528C534.185 787.528 534.185 787.528 534.879 787.528C535.572 787.528 536.266 787.528 537.654 786.834L541.818 785.446L603.583 865.254C604.277 865.948 604.971 866.642 605.665 866.642L618.156 875.664C619.544 877.052 621.626 877.052 623.014 877.052C625.096 877.052 627.178 876.358 629.26 874.276L651.468 852.068C652.856 850.68 654.244 848.598 654.244 845.823L655.632 753.523L829.127 699.392C829.127 699.392 829.127 699.392 829.821 699.392C830.515 699.392 830.515 699.392 831.209 698.698L918.651 645.262L994.989 672.327C995.683 672.327 996.377 673.021 997.071 673.021L1069.94 679.267C1071.33 679.267 1072.72 679.267 1073.41 678.573L1108.8 666.081C1110.88 665.387 1112.97 663.305 1113.66 661.223C1113.66 660.529 1113.66 657.753 1112.97 655.671ZM965.842 499.525L1007.48 464.132L988.743 527.285L943.634 548.798L965.842 499.525ZM486.3 688.288L772.221 699.392L546.676 766.015L486.3 688.288ZM477.972 670.245L419.677 586.273L666.735 602.929L793.04 682.043L477.972 670.245ZM406.492 568.229L385.672 538.388L491.158 493.279L635.506 583.497L406.492 568.229ZM384.284 566.841L327.378 562.678L369.017 544.634L384.284 566.841ZM562.638 518.263L775.69 593.213L671.593 586.273L562.638 518.263ZM375.263 523.815L251.04 345.461L472.42 482.176L375.263 523.815ZM219.116 329.499L359.301 530.754L290.597 559.902L233.69 473.154L164.292 380.854L219.116 329.499ZM397.47 584.885L451.601 662.611L382.896 624.442L313.498 579.333L397.47 584.885ZM824.963 682.043L702.822 605.705L836.761 614.726L896.443 638.322L824.963 682.043ZM908.935 625.136L860.356 605.705L915.181 580.721L908.935 625.136ZM81.7079 309.374L201.073 322.56L151.106 369.75L75.462 326.03C74.0741 325.336 71.9921 324.642 69.9102 324.642L52.5606 326.724L81.7079 309.374ZM342.645 759.769L155.27 667.469L51.1727 505.771L19.9434 384.324L21.3314 347.543L67.8282 341.991L149.024 389.182L219.81 483.564L282.963 580.027C283.657 580.721 284.351 582.109 285.739 582.803L374.569 640.404L467.562 691.758L528.633 770.872L342.645 759.769ZM620.932 858.314L615.381 854.15L558.474 780.588L636.894 756.993L635.506 843.047L620.932 858.314ZM1068.55 663.305L998.459 657.753L925.591 631.382L934.613 572.393L996.377 543.246L1054.67 571.699L1093.53 654.283L1068.55 663.305Z" stroke="black" stroke-width="5.12992" mask="url(#path-5-outside-1)"/>
<defs>
<linearGradient id="paint0_linear" x1="262.823" y1="869.668" x2="867.179" y2="265.312" gradientUnits="userSpaceOnUse">
<stop offset="0.1695" stop-color="#0089E9"/>
<stop offset="1" stop-color="#3EE0D0"/>
</linearGradient>
</defs>
</svg>
