<svg width="418" height="418" viewBox="0 0 418 418" fill="none" xmlns="http://www.w3.org/2000/svg">
<g clip-path="url(#clip0)">
<path d="M180.913 206.487L178.7 204.265C178.328 203.89 177.853 203.635 177.336 203.531C176.818 203.427 176.281 203.479 175.794 203.68C175.306 203.882 174.889 204.223 174.595 204.662C174.302 205.101 174.146 205.617 174.147 206.145V237.89C174.147 238.241 174.217 238.587 174.352 238.91C174.486 239.234 174.683 239.527 174.932 239.774C175.18 240.021 175.474 240.217 175.798 240.35C176.122 240.483 176.469 240.551 176.82 240.55H208.572C209.101 240.554 209.62 240.399 210.061 240.107C210.502 239.814 210.845 239.396 211.047 238.906C211.249 238.417 211.299 237.878 211.193 237.36C211.086 236.841 210.826 236.366 210.448 235.996C209.951 235.497 209.673 234.822 209.673 234.118C209.673 233.414 209.951 232.739 210.448 232.24L244.226 198.373C244.473 198.126 244.669 197.833 244.803 197.51C244.936 197.187 245.005 196.842 245.005 196.492C245.005 196.143 244.936 195.797 244.803 195.475C244.669 195.152 244.473 194.859 244.226 194.612L241.148 191.547C240.771 191.176 240.514 190.701 240.408 190.183C240.303 189.665 240.354 189.127 240.556 188.638C240.758 188.149 241.101 187.732 241.542 187.439C241.982 187.146 242.5 186.991 243.028 186.994H274.767C275.473 186.994 276.15 187.274 276.65 187.773C277.151 188.271 277.433 188.947 277.435 189.653V221.399C277.434 221.925 277.276 222.44 276.983 222.878C276.689 223.315 276.272 223.656 275.785 223.857C275.298 224.058 274.763 224.11 274.246 224.008C273.729 223.905 273.255 223.651 272.882 223.279L270.737 221.144C270.495 220.89 270.203 220.688 269.881 220.551C269.559 220.413 269.212 220.342 268.861 220.342C268.51 220.342 268.163 220.413 267.841 220.551C267.518 220.688 267.227 220.89 266.985 221.144L210.065 278.059C209.563 278.554 208.887 278.831 208.182 278.831C207.478 278.831 206.801 278.554 206.299 278.059L136.63 208.395C136.381 208.148 136.183 207.854 136.048 207.531C135.914 207.207 135.844 206.86 135.844 206.509C135.844 206.159 135.914 205.812 136.048 205.488C136.183 205.165 136.381 204.871 136.63 204.624L233.088 108.214C233.583 107.712 233.86 107.036 233.86 106.331C233.86 105.627 233.583 104.95 233.088 104.448L210.384 81.7733C209.883 81.2764 209.206 80.9976 208.501 80.9976C207.796 80.9976 207.119 81.2764 206.618 81.7733L81.7728 206.623C81.2759 207.124 80.9971 207.801 80.9971 208.506C80.9971 209.211 81.2759 209.888 81.7728 210.389L206.618 335.225C207.119 335.722 207.796 336.001 208.501 336.001C209.206 336.001 209.883 335.722 210.384 335.225L335.225 210.389C335.721 209.89 336 209.214 336 208.511C336 207.807 335.721 207.132 335.225 206.632L261.776 133.189C261.276 132.692 260.6 132.413 259.895 132.413C259.19 132.413 258.514 132.692 258.014 133.189L184.702 206.496C184.455 206.745 184.161 206.942 183.838 207.077C183.514 207.212 183.167 207.281 182.817 207.281C182.466 207.281 182.119 207.212 181.795 207.077C181.472 206.942 181.178 206.745 180.931 206.496L180.913 206.487Z" fill="#DE5959"/>
</g>
<defs>
<clipPath id="clip0">
<rect width="255" height="255" fill="white" transform="translate(81 81)"/>
</clipPath>
</defs>
</svg>
