<svg width="4384" height="4384" viewBox="0 0 4384 4384" fill="none" xmlns="http://www.w3.org/2000/svg">
<path fill-rule="evenodd" clip-rule="evenodd" d="M2168.72 1355.11C2152.81 1362.04 2139.8 1377.7 2133.76 1397.16C2132.99 1399.64 2127.49 1401.98 2117.93 1403.86C1977.02 1431.58 1864.01 1558.94 1849.43 1706.45L1847.66 1724.31L1817.21 1724.97L1786.77 1725.64L1787.45 1747.59L1788.15 1769.55H2595.22L2595.91 1747.59L2596.59 1725.64L2566.16 1724.97L2535.7 1724.31L2534.19 1707.29C2521.13 1561.19 2407.77 1433.07 2265.59 1403.69C2251.95 1400.88 2251.38 1400.45 2247.45 1390.14C2235.67 1359.29 2197.82 1342.45 2168.72 1355.11ZM2288.1 1436.69C2402.88 1481.55 2491.7 1590.49 2505.74 1703.62C2508.59 1726.54 2509.65 1725.5 2483.52 1725.5H2461.36L2459.7 1707.08C2448.9 1587.83 2363.27 1469.44 2258.38 1428.74L2250.01 1425.49L2258.34 1426.9C2262.93 1427.68 2276.32 1432.08 2288.1 1436.69V1436.69ZM950.13 1558.76L940.849 1587.26L910.239 1587.92L879.619 1588.59L902.579 1605.01C930.706 1625.14 929.743 1622.4 919.419 1653.24C908.914 1684.63 908.018 1684.07 935.874 1663.79C948.589 1654.54 960.204 1647.67 961.689 1648.52C963.174 1649.37 973.86 1656.95 985.419 1665.36C1010.93 1683.93 1010.12 1684.61 999.891 1653.03C989.771 1621.83 988.626 1625.08 1016.69 1605.01L1039.65 1588.59L1008.96 1587.92L978.28 1587.26L969.236 1558.76C964.25 1543.08 960.012 1530.25 959.796 1530.25C959.581 1530.25 955.229 1543.08 950.13 1558.76V1558.76ZM1505.14 1558.76L1496.33 1587.26L1465.67 1587.92L1435.01 1588.59L1459.43 1606.11L1483.86 1623.63L1474.7 1652.53C1471.54 1662.34 1468.49 1672.18 1465.54 1682.06C1465.54 1682.4 1475.46 1675.38 1487.57 1666.45C1499.68 1657.53 1510.88 1649.45 1512.47 1648.5C1514.2 1647.46 1524.69 1653.55 1538.6 1663.68C1565.88 1683.51 1565.61 1683.71 1554.84 1651.75C1550.25 1638.11 1546.49 1626.16 1546.49 1625.2C1546.49 1624.25 1557.33 1615.62 1570.57 1606.03L1594.64 1588.59L1564.23 1587.4L1533.81 1586.21L1524.73 1559.09C1519.75 1544.16 1515.28 1531.58 1514.81 1531.1C1514.34 1530.64 1509.99 1543.08 1505.14 1558.76V1558.76ZM2859.24 1558.16L2849.97 1587.25L2819.45 1587.92L2788.93 1588.59L2812.9 1605.97C2826.09 1615.54 2836.88 1624.02 2836.88 1624.8C2836.88 1625.58 2833.08 1637.98 2828.43 1652.34C2818.01 1684.59 2817.37 1684.16 2845.08 1663.69C2858.75 1653.59 2869.16 1647.45 2870.89 1648.48C2872.47 1649.42 2883.2 1657.08 2894.73 1665.5C2920.17 1684.09 2919.72 1684.44 2909.47 1654.01C2898.72 1622.08 2897.51 1625.78 2925.44 1605.25L2949.73 1587.4H2887.92L2878.21 1558.23L2868.5 1529.06L2859.24 1558.16V1558.16ZM3414.23 1558.76L3404.95 1587.26L3374.34 1587.92L3343.72 1588.59L3366.68 1605.01C3394.81 1625.14 3393.85 1622.4 3383.52 1653.24C3373.04 1684.55 3372.54 1684.12 3398.03 1665.5C3409.54 1657.08 3420.27 1649.42 3421.86 1648.48C3423.58 1647.45 3434 1653.59 3447.68 1663.69C3475.28 1684.08 3474.18 1684.81 3464.11 1652.78C3459.6 1638.44 3455.89 1625.93 3455.89 1625.03C3455.88 1624.12 3466.67 1615.54 3479.85 1605.97L3503.83 1588.59L3473.13 1587.92L3442.43 1587.26L3433.62 1558.76C3428.79 1543.08 3424.52 1530.25 3424.17 1530.25C3423.81 1530.25 3419.33 1543.08 3414.23 1558.76V1558.76ZM1227.42 1559.43L1219.05 1586.21L1188.21 1587.4L1157.37 1588.59L1181.71 1606.08C1195.09 1615.69 1206.04 1623.87 1206.04 1624.25C1206.04 1624.62 1201.87 1637.95 1196.78 1653.86C1191.68 1669.77 1188.74 1681.84 1190.23 1680.69C1198.47 1674.59 1206.73 1668.53 1215.03 1662.52L1237.11 1646.46L1262.05 1664.55C1275.77 1674.5 1286.99 1682.32 1286.99 1681.93C1286.99 1681.54 1282.7 1668.47 1277.47 1652.89C1272.23 1637.29 1268.75 1623.81 1269.73 1622.94C1270.71 1622.06 1282.1 1613.7 1295.03 1604.37L1318.56 1587.4H1256.36L1247.35 1560.02C1236.4 1526.75 1237.64 1526.79 1227.42 1559.43V1559.43ZM3136.02 1560.02L3127.01 1587.4H3064.88L3088.37 1604.31C3101.29 1613.61 3112.65 1621.98 3113.64 1622.89C3114.61 1623.79 3111.15 1637.27 3105.92 1652.82C3100.7 1668.37 3096.69 1681.33 3096.99 1681.63C3097.31 1681.92 3108.54 1674.15 3121.96 1664.34L3146.33 1646.52L3163.62 1659.02C3171.96 1665.03 3180.25 1671.12 3188.49 1677.26L3196.1 1682.99L3190.29 1664.11C3187.29 1654.29 3184.14 1644.51 3180.82 1634.8C3177.4 1625.08 3177.43 1624.15 3181.4 1621.17C3183.74 1619.42 3194.77 1611.37 3205.9 1603.29L3226.14 1588.59L3195.42 1587.4L3164.69 1586.21L3156.33 1559.42C3146.11 1526.67 3147 1526.65 3136.02 1560.02V1560.02ZM602.517 1953.9C590.731 1954.65 578.594 1956.69 575.545 1958.44C570.865 1961.1 568.553 1961.01 560.621 1957.83C547.803 1952.71 538.907 1953.12 531.179 1959.21L524.662 1964.32L514.123 1959.21C486.438 1945.75 462.742 1965.82 470.822 1995.89C472.204 2001.05 473.111 2018.2 472.839 2033.99C472.556 2049.77 473.542 2067.18 475.015 2072.67C477.066 2080.27 477.021 2083.91 474.811 2088C470.969 2095.13 469.53 2126.61 472.771 2132.66C475.185 2137.18 476.363 2227.29 475.196 2318.39C474.607 2364.63 474.324 2362.28 481.304 2370.58C488.671 2379.33 509.874 2381.2 520.141 2374C525.331 2370.36 526.215 2370.38 532.663 2374.18C541.797 2379.58 573.687 2378.06 584.419 2371.72C591.332 2367.63 591.796 2367.63 596.42 2371.83C600.443 2375.46 603.854 2375.95 617.34 2374.83C651.201 2372.02 660.222 2364.32 653.898 2343.68C648.595 2326.4 648.221 2316.52 652.448 2305.93C655.171 2299.35 656.068 2292.16 655.043 2285.11L653.615 2274.33L663.168 2285.04C668.438 2290.94 672.744 2296.49 672.744 2297.39C672.744 2298.28 674.863 2299.69 677.447 2300.5C680.031 2301.33 683.522 2304.87 685.199 2308.37C689.018 2316.34 723.163 2341.23 735.504 2345.03C740.875 2346.69 745.692 2350.07 747.108 2353.16C752.185 2364.31 803.181 2383.32 815.522 2378.66C820.962 2376.61 823.455 2376.75 826.787 2379.27C844.67 2392.83 867.697 2376.82 864.977 2352.73C864.32 2346.89 864.728 2341.53 865.884 2340.83C868.751 2339.05 868.525 2314.34 865.589 2308.84C863.992 2305.86 863.992 2303.89 865.589 2302.91C869.272 2300.63 868.411 2282.78 864.06 2271.39C860.388 2261.79 860.41 2260.56 864.377 2251.78C874.429 2229.46 865.589 2208.86 845.95 2208.86C837.813 2208.86 832.023 2207.32 827.161 2203.85C823.285 2201.09 809.698 2193.74 796.937 2187.5C769.025 2173.85 762.203 2164.45 768.765 2148.75C773.037 2138.51 812.893 2098.45 824.09 2093.14C828.487 2091.05 832.68 2087.46 833.416 2085.15C834.153 2082.85 838.743 2079.2 843.627 2077.03C859.515 2070.02 867.697 2062.9 869.34 2054.64C871.868 2041.99 861.884 2022.91 850.891 2019.42C848.455 2018.65 844.908 2014.29 842.992 2009.72C839.355 2001.01 811.873 1970.74 807.59 1970.74C806.23 1970.74 801.527 1967.28 797.141 1963.03C780.845 1947.23 741.102 1951.87 731.707 1970.69C729.044 1976.04 723.82 1980.88 716.918 1984.38C704.906 1990.49 688.644 2006.66 684.405 2016.71C682.66 2020.85 679.226 2023.88 675.385 2024.67C671.724 2025.43 665.967 2030.27 661.366 2036.46C657.071 2042.23 652.595 2046.94 651.439 2046.94C647.099 2046.94 641.172 2023.28 643.801 2016.45C649.037 2002.83 651.518 1970.88 647.881 1963.85C645.036 1958.36 629.046 1950.2 624.853 1952.12C624.355 1952.35 614.303 1953.15 602.517 1953.9V1953.9ZM2909.48 1955.44C2901.63 1957.14 2891.68 1958.61 2887.39 1958.68C2883.09 1958.78 2874.29 1961.52 2867.83 1964.79C2861.37 1968.07 2853.26 1970.74 2849.82 1970.74C2846.37 1970.74 2840.72 1972.25 2837.24 1974.1C2833.76 1975.93 2825.57 1979.29 2819.02 1981.56C2805.16 1986.35 2797.4 1992.66 2795.34 2000.81C2794.31 2004.93 2791.71 2007.05 2786.33 2008.12C2776.6 2010.07 2742.74 2044.43 2740.76 2054.39C2740 2058.15 2737.9 2061.23 2736.07 2061.23C2732.75 2061.23 2725.12 2076.43 2715.17 2102.9C2711.09 2113.74 2709.87 2121.65 2710.15 2135.75C2710.33 2145.97 2709.35 2157.21 2707.96 2160.76C2703.82 2171.29 2705.5 2203.44 2710.72 2213.67C2713.22 2218.56 2714.63 2223.16 2713.89 2223.92C2713.14 2224.67 2718 2235.54 2724.7 2248.08C2731.41 2260.62 2736.88 2273.64 2736.88 2277.02C2736.88 2280.41 2739.29 2286.19 2742.24 2289.88C2745.19 2293.57 2750.72 2300.92 2754.54 2306.21C2763.98 2319.31 2777.9 2330.07 2793.64 2336.48C2801.61 2339.71 2807.97 2344.08 2809.79 2347.56C2814.52 2356.57 2866.98 2374.52 2883.78 2372.88C2887.44 2372.52 2893.05 2373.65 2896.24 2375.39C2900.28 2377.58 2912.93 2378.62 2937.91 2378.75C2976.06 2378.98 2984.43 2377.43 3003.3 2366.62C3009.05 2363.31 3017.9 2360.31 3022.95 2359.94C3032.56 2359.22 3051.32 2348.99 3065.11 2336.94C3069.52 2333.1 3076.66 2328.26 3080.98 2326.21C3085.93 2323.84 3090.34 2319.1 3092.94 2313.33C3095.2 2308.31 3099.02 2303.59 3101.41 2302.81C3117.82 2297.61 3141.57 2260.55 3141.6 2240.13C3141.61 2232.13 3143.16 2227.95 3148.33 2222.07C3161.18 2207.43 3163.04 2160.96 3151.95 2131.1C3149.37 2124.15 3148.97 2119.93 3150.63 2116.98C3155.6 2108.09 3133.6 2059.34 3121.07 2051.55C3116.39 2048.63 3113.11 2044.27 3112.2 2039.77C3110.87 2033.13 3096.53 2015.99 3092.29 2015.99C3091.27 2015.99 3087.55 2012.38 3084.04 2007.99C3080.24 2003.23 3074.63 1999.37 3070.2 1998.49C3066.1 1997.67 3059.48 1993.74 3055.49 1989.75C3047.39 1981.65 3034.53 1975.5 3025.63 1975.5C3022.39 1975.5 3016.67 1973.33 3012.92 1970.65C2999.48 1961.08 2979.97 1956.09 2953.22 1955.38C2939.29 1955 2926.97 1954.17 2925.84 1953.53C2924.7 1952.88 2917.35 1953.75 2909.48 1955.44V1955.44ZM1320.78 1961.16C1305.77 1972.04 1302.94 1988.99 1312.41 2011.53C1315.16 2018.12 1315.4 2021.35 1313.42 2025.08C1311.8 2028.47 1310.91 2032.17 1310.8 2035.92C1310.8 2039.21 1309.72 2042.56 1308.42 2043.37C1304.67 2045.68 1305.64 2070.39 1309.82 2079.21C1315.47 2091.1 1319.35 2093.23 1335.48 2093.31C1355.39 2093.4 1356.31 2094.27 1352.32 2109.36C1350.53 2116.18 1349.69 2124.28 1350.46 2127.37C1351.47 2131.4 1350.16 2134.76 1345.75 2139.36C1339.28 2146.11 1326.87 2171.74 1329.01 2173.89C1331.14 2176.02 1327.32 2185.04 1324.29 2185.04C1321.46 2185.04 1313.18 2205.03 1313.18 2211.84C1313.18 2213.78 1308.35 2222.56 1302.46 2231.34C1296.56 2240.14 1291.08 2251.49 1290.26 2256.58C1289.3 2262.62 1286.82 2267.12 1283.12 2269.54C1280.02 2271.58 1277.47 2275.31 1277.47 2277.82C1277.47 2280.33 1276.39 2283.05 1275.09 2283.85C1273.77 2284.67 1272.71 2289.47 1272.71 2294.55C1272.71 2301.31 1271.56 2304.14 1268.46 2305.13C1264.11 2306.51 1256.04 2318.15 1256.04 2323.05C1256.04 2324.55 1253.36 2329.72 1250.09 2334.54C1229.15 2365.35 1256.31 2379.49 1322.1 2372.01C1327.66 2371.37 1334.88 2372.08 1338.15 2373.57C1342.64 2375.61 1346.43 2375.59 1353.46 2373.48C1360.59 2371.35 1365.26 2371.34 1373.17 2373.46C1394.94 2379.28 1404.86 2375.18 1413.18 2356.93C1430.77 2318.3 1434.73 2315.26 1463.96 2318.06C1473.99 2319.01 1483.87 2318.84 1485.96 2317.66C1488.06 2316.48 1492.63 2316.25 1496.12 2317.13C1499.6 2318 1507.26 2319.45 1513.13 2320.34C1522.91 2321.82 1524.26 2322.88 1528.94 2332.75C1531.75 2338.69 1535.78 2344.98 1537.89 2346.73C1540.01 2348.49 1541.73 2352.82 1541.73 2356.36C1541.73 2372.25 1569.89 2380.88 1592.98 2372.06C1603.21 2368.15 1604.12 2368.15 1610.04 2372.04C1616.93 2376.55 1643.12 2375.66 1654.4 2370.52C1658.85 2368.49 1661.73 2368.75 1667.47 2371.72C1685.51 2381.05 1711.53 2368.31 1714.73 2348.58C1716.1 2340.11 1705.88 2313.31 1697.79 2304.13C1696.03 2302.15 1694.63 2297.81 1694.65 2294.47C1694.71 2286.98 1675.45 2230.49 1671.09 2225.34C1669.35 2223.26 1667.92 2218.43 1667.92 2214.58C1667.92 2201.77 1654.46 2170.75 1648.89 2170.75C1644.39 2170.75 1640.77 2159.75 1641.36 2147.88C1641.99 2135.14 1632.71 2108.85 1627.59 2108.85C1623.54 2108.85 1614.84 2087.98 1616.4 2082.04C1617.95 2076.1 1605.22 2027.23 1600.01 2019.22C1598.03 2016.15 1597.2 2010.92 1597.96 2006.12C1599.48 1996.45 1587.21 1967.56 1579.94 1963.66C1572.28 1959.57 1554.55 1958.06 1546.6 1960.83C1541.26 1962.7 1533.48 1962.67 1518.7 1960.77C1503.1 1958.75 1496.34 1958.8 1490.33 1960.97C1483.96 1963.27 1481.13 1963.2 1475.78 1960.53C1468.61 1956.98 1429.09 1956.47 1417.62 1959.78C1413.65 1960.93 1407.26 1960.21 1400.27 1957.83C1386.13 1953.04 1377.32 1953.09 1366.96 1958.03C1359.26 1961.7 1357.98 1961.7 1348.35 1958.03C1334.4 1952.7 1332.1 1952.96 1320.78 1961.16V1961.16ZM3657.68 1959.08C3646.69 1964.77 3645.49 1969.15 3647.19 1997.46C3647.91 2009.62 3648.57 2020.64 3648.62 2021.94C3648.69 2023.25 3647.5 2032.22 3645.97 2041.88C3643.82 2055.56 3643.86 2061.98 3646.17 2070.98C3648.33 2079.44 3648.45 2084.64 3646.61 2090.34C3645.07 2095.13 3644.03 2128.42 3643.94 2176.71C3643.75 2273.26 3642.5 2310.9 3638.96 2327.91C3633 2356.39 3653 2381.88 3676.68 2376.01C3685.75 2373.76 3777.94 2371.91 3807.04 2373.39C3890.24 2377.62 3909.33 2372.01 3909.57 2343.25C3909.66 2332.85 3910.6 2322.4 3911.66 2320.03C3912.73 2317.65 3913.07 2308.19 3912.41 2299C3911.75 2289.79 3912.25 2278.19 3913.52 2273.19C3918.72 2252.66 3903.46 2239.1 3876.08 2239.92C3868.23 2240.16 3849.96 2240.23 3835.49 2240.08L3809.18 2239.81L3804.07 2229.28C3799.65 2220.19 3799.43 2218.37 3802.41 2215.9C3804.3 2214.32 3805.85 2209.92 3805.85 2206.13C3805.85 2196.19 3814.25 2192.76 3829.21 2196.6C3839.64 2199.28 3874.4 2198.72 3888.54 2195.65C3899.67 2193.24 3903.62 2175.69 3898.45 2151.6C3896.53 2142.66 3896.53 2138.63 3898.45 2136.72C3899.9 2135.27 3901.08 2128.43 3901.08 2121.52C3901.08 2100.71 3900.26 2100.53 3823.71 2104.56C3807 2105.45 3798.46 2099.15 3803.53 2089.68C3808.15 2081.06 3815.1 2079.68 3856.07 2079.32C3906.45 2078.89 3906.59 2078.81 3905.63 2050.55C3905.27 2040.05 3905.83 2026.4 3906.87 2020.23C3908.05 2013.19 3907.75 2006.16 3906.09 2001.39C3904.13 1995.75 3904.15 1991.81 3906.18 1986.19C3909.93 1975.83 3907.28 1967.33 3898.31 1960.95L3890.79 1955.59L3867.69 1959.58C3848.96 1962.81 3841.95 1963.06 3830.58 1960.92C3821.43 1959.19 3806.24 1958.9 3786.8 1960.09C3750.98 1962.27 3742.53 1962.19 3722.94 1959.51C3711.25 1957.9 3706.83 1958.19 3703.11 1960.79C3698.97 1963.69 3697.14 1963.65 3689.59 1960.49C3675.2 1954.45 3667.33 1954.11 3657.68 1959.08V1959.08ZM995.482 1960.35C989.782 1963.51 987.096 1963.73 981.034 1961.54C970.29 1957.65 943.444 1958.22 932.599 1962.55C916.359 1969.06 914.682 1975.28 917.617 2018.4C919.215 2041.85 919.328 2061.35 917.934 2071.94C914.874 2095.22 914.965 2166.81 918.059 2169.9C919.781 2171.61 919.736 2175.98 917.912 2184.07C916.461 2190.5 915.384 2211.83 915.509 2231.48C915.634 2251.12 915.169 2280.59 914.466 2296.95C911.282 2372.38 915.747 2379.25 965.587 2375.57C971.48 2375.12 996.117 2374.91 1020.35 2375.08C1050.9 2375.2 1081.45 2374.97 1112 2374.38C1138.19 2373.83 1161.22 2373.44 1163.19 2373.52C1200.28 2374.99 1202.06 2373.38 1200.51 2339.86C1198.48 2295.91 1198.4 2284.03 1200.14 2276.12C1202.72 2264.25 1199.32 2247.81 1192.62 2239.87C1186 2231.99 1187.89 2232.1 1128.66 2236.07C1090.51 2238.62 1083.8 2234.92 1086.47 2212.8C1087.08 2207.72 1086.21 2201.12 1084.52 2197.94C1082.1 2193.41 1082.06 2190.92 1084.35 2185.87C1086.27 2181.67 1087.08 2168.24 1086.75 2145.98C1086.48 2128.44 1086.45 2110.91 1086.65 2093.38C1087.46 2054.67 1086.85 2036.04 1084.53 2028.91C1082.78 2023.51 1083.06 2019.04 1085.6 2011.84C1096.24 1981.66 1084.15 1955.01 1060.91 1957.48C1045.28 1959.15 1041.06 1959.16 1019.16 1957.63C1006.5 1956.74 1000.8 1957.39 995.482 1960.35V1960.35ZM1795.28 1959.52C1786.12 1960.71 1775.94 1961.52 1772.67 1961.33C1723.73 1958.36 1713.29 1959.75 1708.69 1969.83C1701.97 1984.57 1708.84 2004.24 1727.15 2022.73C1733.21 2028.84 1743.89 2041.61 1750.88 2051.11C1757.88 2060.6 1764.55 2068.37 1765.71 2068.37C1766.87 2068.37 1770.44 2073.53 1773.63 2079.83C1776.82 2086.13 1781.19 2092.74 1783.32 2094.51C1785.46 2096.29 1791.35 2104.79 1796.43 2113.41C1801.51 2122.04 1815.48 2140.84 1827.48 2155.2C1852.92 2185.63 1853.23 2187.41 1837.08 2211.6C1831.16 2220.46 1827.42 2228.83 1827.42 2233.19C1827.42 2237.43 1824.87 2243.33 1821.1 2247.8C1817.63 2251.91 1810.79 2263.96 1805.9 2274.57C1801.02 2285.18 1795.49 2294.44 1793.61 2295.16C1791.73 2295.89 1786.55 2304.89 1782.11 2315.17C1777.66 2325.45 1772.2 2335.21 1769.96 2336.84C1759.64 2344.4 1758.75 2365.83 1768.53 2371.15C1775.96 2375.18 1811.69 2373.86 1825.57 2369.03C1836.03 2365.39 1837.09 2365.39 1841.23 2369.13C1847.81 2375.1 1879.28 2374.73 1891.42 2368.53C1900.38 2363.96 1900.52 2363.96 1908.24 2368.65C1918.47 2374.88 1939.84 2375.51 1951.4 2369.95C1960.84 2365.41 1974.32 2337.38 1971.1 2329C1969.98 2326.06 1971.72 2323.01 1977.05 2318.64C1983.26 2313.53 1985.49 2308.84 1989.64 2292.19C1993.29 2277.57 1996.24 2270.75 2000.3 2267.62C2003.37 2265.23 2007.43 2258.27 2009.29 2252.14C2011.16 2246.01 2014.39 2237.01 2016.47 2232.15C2018.56 2227.27 2020.27 2220.71 2020.27 2217.55C2020.27 2213.78 2023.14 2209.62 2028.6 2205.45C2033.19 2201.94 2036.96 2197.26 2037.01 2195.04C2037.05 2192.82 2039.73 2186.71 2042.95 2181.47C2046.18 2176.24 2048.82 2168.88 2048.83 2165.14C2048.84 2160.8 2050.91 2156.71 2054.61 2153.81C2057.78 2151.31 2061.05 2146.19 2061.88 2142.43C2062.7 2138.68 2067.33 2130.98 2072.18 2125.34C2082.25 2113.6 2117.84 2050.23 2117.86 2043.99C2117.88 2041.73 2122.17 2037.02 2127.41 2033.57C2132.64 2030.1 2136.93 2025.48 2136.93 2023.28C2136.93 2021.09 2140.77 2015.61 2145.46 2011.09C2168.91 1988.56 2161.76 1951.33 2135.25 1957.98C2131.66 1958.89 2110.48 1959.86 2088.18 1960.16C2065.89 1960.45 2045.51 1960.76 2042.89 1960.84C2040.27 1960.92 2029.4 1960.42 2018.74 1959.74L1999.35 1958.49L1989.71 1972.36C1984.4 1979.98 1977.25 1989.3 1973.82 1993.04C1969.85 1997.56 1966.45 2002.56 1963.71 2007.92C1961.6 2012.36 1959.11 2015.99 1958.19 2015.99C1954.43 2015.99 1937.18 2000.25 1937.07 1996.72C1936.45 1977.85 1905.72 1953.06 1890.25 1958.95C1885.25 1960.84 1880.75 1960.77 1873.31 1958.7C1863.88 1956.04 1857.59 1956.29 1829.47 1960.41C1824.7 1961.1 1818.82 1960.7 1816.39 1959.52C1813.75 1958.24 1805.21 1958.24 1795.28 1959.52V1959.52ZM2276.2 1959.14C2240.96 1961.4 2245.03 1961.35 2231.43 1959.72C2218.69 1958.19 2213.25 1961.36 2206.63 1974.16C2202.68 1981.81 2202.43 1989.65 2204.4 2044.56C2206.09 2091.54 2206.05 2139.39 2204.32 2146.53C2203.58 2149.58 2204.39 2154.7 2206.11 2157.92C2208.77 2162.9 2208.6 2165.54 2204.94 2175.71C2201.23 2186.03 2201.04 2189.07 2203.62 2198.25C2206.75 2209.43 2207.02 2220.21 2205.37 2268.38C2204.82 2284.75 2205.29 2300.72 2206.43 2303.86C2207.83 2307.71 2207.24 2313.36 2204.6 2321.28C2193.46 2354.84 2213.5 2381.52 2245.33 2375.51C2253.63 2373.95 2261.64 2373.42 2263.15 2374.37C2268.51 2377.67 2328.08 2377.45 2341.67 2374.07C2363.22 2368.7 2364.02 2366.7 2361.91 2323.15C2360.92 2302.85 2359.98 2270.57 2359.82 2251.4L2359.53 2216.58L2366.07 2222.07C2369.66 2225.1 2374.58 2228.2 2376.99 2228.97C2379.42 2229.73 2384.85 2235.17 2389.06 2241.05C2393.28 2246.9 2397.69 2251.71 2398.87 2251.71C2400.04 2251.71 2405.26 2255.99 2410.44 2261.24C2423.37 2274.3 2428.79 2273.82 2444.81 2258.19C2451.88 2251.28 2458.36 2243.5 2459.2 2240.93C2460.04 2238.35 2467.15 2232.71 2475.01 2228.41L2489.29 2220.58L2489.59 2236.74C2489.76 2245.62 2489.6 2273.8 2489.24 2299.34C2488.39 2358.63 2488.34 2357.72 2493.31 2366.14C2497.58 2373.37 2512.86 2379.81 2518.09 2376.56C2519.48 2375.71 2537.39 2374.68 2557.92 2374.29C2578.44 2373.88 2596.3 2373.48 2597.6 2373.4C2598.92 2373.31 2613.6 2373.79 2630.26 2374.43C2666.63 2375.86 2669.58 2373.98 2666.75 2351.19C2665.89 2344.27 2665.3 2328.44 2665.45 2316.01C2665.65 2298.89 2664.53 2290 2660.88 2279.47C2656.38 2266.56 2656.31 2265.04 2659.78 2258.32C2662.76 2252.55 2663.22 2246.67 2662.02 2229.37C2660.45 2206.93 2657.64 2104.53 2658.18 2089.81C2658.35 2085.22 2659.04 2056.03 2659.72 2024.93L2660.94 1968.4L2655.23 1962.69L2649.53 1956.97L2580.23 1957.54L2510.94 1958.1L2502.29 1964.7C2494.48 1970.65 2483.9 1984.97 2474.77 2001.96C2468.38 2013.84 2448.03 2037.42 2444.26 2037.31C2434.8 2037.01 2423.63 2028.73 2417.86 2017.71C2413.76 2009.87 2409.21 2005.06 2403.23 2002.23C2395.74 1998.69 2394.04 1996.29 2390.77 1984.63C2384.84 1963.41 2366.56 1953.34 2343.42 1958.51C2334.25 1960.57 2328.66 1960.68 2324.05 1958.92C2320.48 1957.57 2314.68 1956.64 2311.16 1956.88L2276.2 1959.14V1959.14ZM3259.47 1958.15C3256.85 1958.79 3253.73 1960.23 3252.54 1961.36C3251.35 1962.48 3245.75 1962.78 3240.1 1962.01C3216.55 1958.78 3206.02 1972.12 3205.97 2005.28C3205.94 2017.75 3207.18 2026.72 3209.54 2031.26C3212.27 2036.48 3212.58 2039.99 3210.83 2045.54C3206.95 2057.79 3206.84 2109.18 3210.67 2115.22C3213.44 2119.58 3213.46 2121.47 3210.76 2127.13C3206.33 2136.44 3204.38 2198.48 3208.1 2211.86C3210.41 2220.16 3210.25 2223.79 3207.21 2232.36C3202.45 2245.78 3202.53 2256.31 3207.48 2268.69C3210.87 2277.15 3211.05 2280.61 3208.67 2292.09C3203.87 2315.36 3205.01 2355.69 3210.74 2364.95C3217.91 2376.55 3255.18 2382.98 3266.66 2374.59C3269.97 2372.17 3272.83 2371.89 3277.24 2373.58C3280.56 2374.84 3293.45 2375.8 3305.88 2375.7C3318.33 2375.61 3335.28 2376.17 3343.55 2376.94C3373.72 2379.76 3386.87 2363.82 3377.32 2336C3374.68 2328.33 3377.17 2315.66 3381.59 2314.18C3383.14 2313.66 3390.04 2319.09 3396.93 2326.24C3403.82 2333.39 3413.2 2341.12 3417.78 2343.42C3422.37 2345.71 3430.49 2351.58 3435.82 2356.47C3453.84 2372.94 3485.9 2382.92 3499.67 2376.36C3507.34 2372.7 3508.91 2372.7 3521.93 2376.36C3569.07 2389.59 3602.51 2371.75 3588.31 2340.95L3582.85 2329.1L3587.81 2322.35C3592.47 2316.01 3593.47 2307.51 3592.06 2286.23C3591.88 2283.62 3592.53 2273.44 3593.48 2263.62C3596.53 2232.13 3577.52 2219.27 3552.75 2236.08C3545.25 2241.17 3543.12 2241.58 3535.16 2239.44C3519.39 2235.2 3518.39 2231.64 3532.02 2228.15C3538.6 2226.46 3544.77 2223.72 3545.76 2222.05C3546.73 2220.38 3550.76 2217.38 3554.7 2215.36C3565.72 2209.74 3580.28 2183.91 3578.85 2172.51C3577.99 2165.56 3578.7 2163.02 3582.03 2161.24C3593.45 2155.13 3597.9 2104.65 3588.65 2086.16C3584.45 2077.74 3583.05 2071.79 3583.84 2065.52C3585.25 2054.13 3567.59 2024.52 3554.17 2015.8C3548.82 2012.32 3544.49 2007.18 3543.26 2002.84C3540.51 1993.21 3518.62 1977.86 3505.13 1976.1C3499.65 1975.38 3492.18 1972.32 3488.54 1969.29C3475.86 1958.75 3438.12 1953.18 3416.43 1958.64C3408.05 1960.75 3404.6 1960.75 3402.07 1958.64C3399.68 1956.67 3390.4 1956.34 3369.57 1957.52C3353.54 1958.41 3336.66 1959.34 3332.07 1959.58C3327.5 1959.81 3310.35 1959.32 3293.99 1958.5C3277.62 1957.68 3262.08 1957.53 3259.47 1958.15V1958.15ZM3410.3 2081.54C3422.28 2091.62 3426.22 2122.31 3420.65 2162.03C3417.48 2184.6 3397.2 2205.98 3387.85 2196.59C3379.9 2188.61 3374.13 2129.43 3379.84 2114.4C3382.78 2106.69 3382.7 2095.22 3379.69 2093.38C3374.85 2090.38 3377.56 2085.02 3386.24 2080.43C3398.06 2074.2 3401.77 2074.37 3410.3 2081.54ZM2937.56 2091.35C2967.93 2107.06 2977.14 2122.98 2977.45 2160.27C2977.85 2211.43 2963.4 2237.44 2931.22 2243.48C2908.63 2247.72 2884.49 2226.39 2884.49 2202.2C2884.49 2196.79 2882.91 2187.69 2880.97 2182C2878.08 2173.5 2877.95 2169.09 2880.2 2157.5C2881.71 2149.73 2883.09 2137.91 2883.26 2131.23C2883.49 2122.7 2885.13 2117.12 2888.79 2112.46C2891.67 2108.81 2894.02 2104.91 2894.02 2103.8C2894.02 2095.21 2926.87 2085.82 2937.56 2091.35V2091.35ZM1479.32 2193.98C1487.07 2200.73 1488.45 2224.95 1481.26 2228.23C1467.9 2234.31 1454.81 2222.5 1463.16 2211.88C1465.78 2208.55 1467.92 2203.92 1467.92 2201.58C1467.92 2190.13 1471.89 2187.49 1479.32 2193.98V2193.98ZM468 2586.25V2599.35H1032.25V2573.16H468V2586.25V2586.25ZM1214.52 2576.71C1164.79 2594.42 1170.23 2646 1224.12 2667.8C1285.52 2692.63 1256.72 2749.82 1194.78 2726.05L1182.32 2721.27L1179.99 2729.74C1177 2740.56 1177.62 2741.37 1192.29 2745.72C1274.83 2770.23 1318.74 2683.09 1239.78 2651.49C1211.67 2640.25 1203.66 2632.69 1203.66 2617.4C1203.66 2596.79 1229.78 2586.05 1257.18 2595.39L1268.14 2599.13L1270.42 2593.13C1274.41 2582.64 1273.17 2580.62 1260.37 2576.82C1245.21 2572.31 1226.97 2572.28 1214.52 2576.71V2576.71ZM2416.19 2577.45C2361.74 2596.91 2342.41 2673.51 2379.63 2722.3C2412.25 2765.08 2486.53 2755.44 2508.42 2705.6C2540.73 2631.98 2484.03 2553.2 2416.19 2577.45V2577.45ZM2866.64 2575.38C2812.82 2588.48 2815.88 2645.26 2871.61 2667.8C2932.99 2692.62 2904.22 2749.82 2842.31 2726.07C2830.19 2721.41 2829.86 2721.41 2828.62 2725.81L2826.03 2734.99C2824.12 2741.72 2838.27 2747.11 2861.88 2748.67C2903.6 2751.39 2927.22 2734.01 2927.3 2700.54C2927.34 2675.79 2919.8 2667.05 2883.25 2649.63C2857.3 2637.27 2851.16 2631.09 2851.16 2617.33C2851.16 2596.79 2877.32 2586.07 2904.68 2595.39L2915.64 2599.13L2917.93 2593.13C2921.91 2582.64 2920.67 2580.62 2907.86 2576.82C2894.98 2572.99 2878.77 2572.42 2866.64 2575.38V2575.38ZM3313.04 2586.25V2599.35H3915.37V2573.16H3313.04V2586.25V2586.25ZM1353.65 2585.06V2594.58H1406.02V2746.98H1427.45V2594.58H1479.83V2575.54H1353.65V2585.06ZM1585.75 2578.51C1577.83 2600.41 1529.83 2743.29 1529.83 2744.96C1529.83 2746.22 1534.85 2746.91 1540.99 2746.51L1552.16 2745.79L1560.14 2720.12L1568.11 2694.46L1599.4 2695.11L1630.7 2695.78L1639.11 2721.37L1647.51 2746.98H1658.91C1673.37 2746.98 1676.55 2759.63 1623.57 2607.08L1612.62 2575.54H1599.72C1591.56 2575.54 1586.43 2576.63 1585.75 2578.51V2578.51ZM1758.39 2661.26V2746.98H1779.8V2681.24L1787.66 2673.62C1791.98 2669.44 1796.06 2666.02 1796.71 2666.02C1797.37 2666.02 1810.18 2684.22 1825.17 2706.46L1852.42 2746.91L1864.92 2746.94C1880.62 2746.98 1882.73 2752.28 1845.03 2696.78C1816.08 2654.14 1813 2648.66 1816.02 2645.05C1817.88 2642.83 1831.38 2626.92 1846.03 2609.69C1877.07 2573.18 1876.11 2575.54 1860.07 2575.54C1845.73 2575.54 1851.01 2570.54 1805.23 2627.33L1779.8 2658.87V2575.54H1758.39V2661.26V2661.26ZM1958.37 2661.26V2746.98H2053.6V2727.92H1979.8V2666.02H2046.46V2649.35H1979.8V2594.58H2048.84V2575.54H1958.37V2661.26V2661.26ZM2144.07 2661.26V2746.98H2165.49V2666.02H2248.82V2746.98H2270.25V2575.54H2248.82V2646.97H2165.49V2575.54H2144.07V2661.26V2661.26ZM2608.32 2637.17C2608.32 2730 2618.86 2749.39 2669.3 2749.35C2721.63 2749.29 2735.26 2723.45 2733.98 2626.72L2733.31 2576.73L2722 2576.01L2710.69 2575.28L2710.68 2634.34C2710.67 2712.31 2705.47 2727.22 2676.85 2731.52C2638.99 2737.2 2629.74 2717.84 2629.74 2632.82V2575.54H2608.32V2637.17V2637.17ZM3020.19 2661.26V2746.98H3115.43V2727.92H3041.47L3042.14 2697.56L3042.81 2667.21L3075.55 2666.54L3108.28 2665.88V2649.35H3041.62V2594.58H3113.05V2575.54H3020.19V2661.26V2661.26ZM2459.01 2595.49C2507.14 2616.15 2503.8 2715.02 2454.49 2729.76C2415.44 2741.42 2385.71 2712.3 2385.73 2662.45C2385.75 2610.32 2420.22 2578.85 2459.01 2595.49V2595.49ZM1617.65 2654.71L1624.75 2675.54H1599.91C1586.25 2675.54 1575.06 2674.89 1575.06 2674.1C1575.06 2673.3 1580.59 2655.52 1587.34 2634.59L1599.62 2596.53L1605.08 2615.2C1608.07 2625.47 1613.74 2643.25 1617.65 2654.71V2654.71ZM468 2695.78V2708.87H1032.25V2682.68H468V2695.78V2695.78ZM3313.04 2695.78V2708.87H3915.37V2682.68H3313.04V2695.78V2695.78ZM468 2802.93V2816.02H1032.25V2789.83H468V2802.93V2802.93ZM3313.04 2802.93V2816.02H3915.37V2789.83H3313.04V2802.93ZM468 2912.46V2925.55H3915.37V2899.36H468V2912.46ZM468 3019.6V3032.7H3915.37V3006.51H468V3019.6Z" fill="#C40C24"/>
<path fill-rule="evenodd" clip-rule="evenodd" d="M2185.13 1351C2188.74 1351.54 2194.63 1351.54 2198.23 1351C2201.83 1350.45 2198.89 1350 2191.68 1350C2184.48 1350 2181.54 1350.45 2185.13 1351ZM2151.61 1365.36L2142.67 1374.29L2151.1 1367.16C2155.75 1363.23 2160.56 1359.21 2161.8 1358.23C2163.05 1357.24 2163.27 1356.44 2162.31 1356.44C2161.34 1356.44 2156.53 1360.45 2151.61 1365.36ZM2233.75 1368.59C2239.12 1374.62 2244.28 1381.93 2245.2 1384.84C2246.12 1387.75 2247.39 1389.61 2248.03 1388.98C2250.2 1386.79 2242.05 1374.25 2233.04 1365.96L2223.99 1357.63L2233.75 1368.59V1368.59ZM2036.34 1430.41C2031.43 1433 2027.41 1435.65 2027.41 1436.31C2027.41 1437.36 2046.22 1428.58 2048.63 1426.38C2051.38 1423.91 2044.23 1426.24 2036.34 1430.41V1430.41ZM2258.34 1428.76C2262.93 1430.54 2267.12 1431.6 2267.67 1431.12C2269.41 1429.59 2266.89 1428.45 2258.34 1426.97L2250.01 1425.53L2258.34 1428.76V1428.76ZM2334.73 1426.39C2337.16 1428.6 2360.72 1439.73 2360.72 1438.66C2360.72 1437.32 2337.99 1425.48 2335.4 1425.48C2334.48 1425.48 2334.18 1425.89 2334.73 1426.39ZM2270.25 1432.15C2270.25 1433.2 2275.15 1436.44 2281.13 1439.34C2287.13 1442.26 2291.4 1443.64 2290.64 1442.4C2289.89 1441.18 2290.62 1439.56 2292.26 1438.8C2293.9 1438.05 2292.7 1438.08 2289.6 1438.86C2285.82 1439.81 2284.47 1439.41 2285.55 1437.67C2286.59 1435.98 2285.72 1435.62 2283.08 1436.64C2280.07 1437.78 2279.51 1437.36 2280.96 1435C2282.4 1432.68 2281.87 1432.23 2278.98 1433.34C2276.79 1434.18 2275.01 1433.83 2275.01 1432.56C2275 1431.93 2274.74 1431.34 2274.3 1430.91C2273.85 1430.48 2273.25 1430.24 2272.63 1430.24C2271.32 1430.24 2270.25 1431.11 2270.25 1432.15V1432.15ZM2306.16 1445.42C2308.61 1447.62 2322.63 1454.06 2322.63 1452.99C2322.63 1451.62 2309.43 1444.54 2306.87 1444.54C2305.94 1444.54 2305.61 1444.93 2306.16 1445.42ZM2375 1447.65C2375 1448.21 2379.55 1451.66 2385.12 1455.34C2390.68 1459.01 2393.98 1460.49 2392.45 1458.62C2389.49 1455.05 2375 1445.94 2375 1447.65V1447.65ZM1973.78 1472.1L1961.94 1482.99L1974.44 1472.92C1985.65 1463.87 1988.36 1461.2 1986.27 1461.2C1985.91 1461.2 1980.29 1466.1 1973.78 1472.1V1472.1ZM2341.67 1464.3C2341.67 1464.85 2347.83 1469.24 2355.36 1474.07C2362.89 1478.91 2366.12 1480.37 2362.54 1477.32C2355.47 1471.32 2341.67 1462.7 2341.67 1464.3V1464.3ZM2359.4 1496.92C2383.23 1522.75 2389.55 1528.78 2375.63 1512.39C2368.97 1504.54 2358.88 1493.82 2353.23 1488.58C2347.57 1483.34 2350.35 1487.09 2359.4 1496.92V1496.92ZM2434.53 1495.73C2442.96 1504.24 2450.39 1511.2 2451.05 1511.2C2451.71 1511.2 2445.34 1504.24 2436.91 1495.73C2428.46 1487.22 2421.03 1480.25 2420.37 1480.25C2419.72 1480.25 2426.08 1487.22 2434.53 1495.73ZM1946.38 1496.32L1933.37 1510.01L1947.06 1497C1959.78 1484.91 1961.84 1482.63 1960.07 1482.63C1959.7 1482.63 1953.54 1488.79 1946.38 1496.32V1496.32ZM2370.24 1483.25C2370.24 1483.81 2375.87 1488.95 2382.74 1494.69C2389.62 1500.42 2393.73 1503.23 2391.89 1500.93C2388.2 1496.3 2370.24 1481.63 2370.24 1483.25ZM2410.58 1519.53C2432.84 1543.85 2439.53 1550.19 2425.64 1533.82C2418.97 1525.97 2409.43 1515.79 2404.42 1511.2C2399.42 1506.62 2402.18 1510.37 2410.58 1519.53V1519.53ZM1927.19 1517.75C1916.99 1529.12 1912.36 1535.01 1913.58 1535.01C1914.23 1535.01 1919.28 1529.65 1924.8 1523.11C1935.42 1510.52 1937.14 1506.66 1927.19 1517.75V1517.75ZM2398.81 1544.53C2401.61 1548.47 2404.43 1551.69 2405.09 1551.69C2405.74 1551.69 2403.99 1548.47 2401.19 1544.53C2398.4 1540.61 2395.57 1537.39 2394.92 1537.39C2394.26 1537.39 2396.01 1540.61 2398.81 1544.53ZM2476.1 1546.33C2479.77 1551.89 2483.22 1556.45 2483.78 1556.45C2485.5 1556.45 2476.38 1541.95 2472.81 1538.99C2470.95 1537.46 2472.42 1540.76 2476.1 1546.33ZM2442.71 1557.23C2446.37 1562.03 2449.85 1565.97 2450.44 1565.97C2452.09 1565.97 2441.79 1552.04 2438.74 1550.16C2437.26 1549.24 2439.04 1552.42 2442.71 1557.23V1557.23ZM2499.3 1586.13C2503.47 1594.6 2507.28 1601.14 2507.77 1600.66C2508.83 1599.59 2494.43 1570.73 2492.84 1570.73C2492.22 1570.73 2495.12 1577.66 2499.3 1586.13ZM1883.26 1582.85C1881.16 1586.91 1879.87 1590.64 1880.39 1591.16C1880.9 1591.67 1883.11 1588.36 1885.29 1583.79C1890.18 1573.53 1888.49 1572.74 1883.26 1582.85ZM1588.16 1593.55L1581.01 1599.7L1588.75 1594.57C1593.01 1591.76 1596.49 1588.99 1596.49 1588.43C1596.49 1586.64 1595.48 1587.26 1588.16 1593.55V1593.55ZM1307.23 1595.93L1300.09 1602.08L1307.82 1596.95C1312.08 1594.14 1315.56 1591.38 1315.56 1590.81C1315.56 1589.02 1314.55 1589.64 1307.23 1595.93V1595.93ZM884.638 1593.02C884.638 1593.68 887.845 1596.5 891.778 1599.3C895.71 1602.1 898.917 1603.86 898.917 1603.2C898.917 1602.54 895.71 1599.72 891.778 1596.92C887.845 1594.12 884.638 1592.37 884.638 1593.02ZM1026.29 1598.32L1019.15 1604.46L1026.88 1599.33C1031.14 1596.52 1034.62 1593.76 1034.62 1593.19C1034.62 1591.4 1033.62 1592.02 1026.29 1598.32V1598.32ZM1165.57 1595.4C1165.57 1596.06 1168.78 1598.88 1172.71 1601.68C1176.64 1604.48 1179.85 1606.24 1179.85 1605.58C1179.85 1604.92 1176.64 1602.1 1172.71 1599.3C1168.78 1596.5 1165.57 1594.75 1165.57 1595.4ZM1446.5 1597.79C1446.5 1598.44 1449.71 1601.27 1453.64 1604.06C1457.58 1606.86 1460.78 1608.62 1460.78 1607.96C1460.78 1607.3 1457.58 1604.48 1453.64 1601.68C1449.71 1598.88 1446.5 1597.13 1446.5 1597.79V1597.79ZM2475.47 1609.96C2478.33 1615.82 2481.06 1620.22 2481.56 1619.72C2482.65 1618.65 2473.02 1599.3 2471.4 1599.3C2470.79 1599.3 2472.63 1604.11 2475.47 1609.96V1609.96ZM2803.55 1600.17C2803.55 1600.82 2806.75 1603.65 2810.69 1606.44C2814.61 1609.24 2817.83 1611 2817.83 1610.34C2817.83 1609.68 2814.61 1606.86 2810.69 1604.06C2806.75 1601.27 2803.55 1599.51 2803.55 1600.17V1600.17ZM3480.88 1605.47L3473.73 1611.6L3481.47 1606.49C3485.73 1603.66 3489.21 1600.9 3489.21 1600.33C3489.21 1598.55 3488.2 1599.16 3480.88 1605.47V1605.47ZM3084.48 1602.55C3084.48 1603.2 3087.69 1606.03 3091.62 1608.83C3095.54 1611.62 3098.76 1613.38 3098.76 1612.72C3098.76 1612.07 3095.54 1609.24 3091.62 1606.44C3087.69 1603.65 3084.48 1601.9 3084.48 1602.55V1602.55ZM3199.95 1607.85L3192.8 1613.98L3200.54 1608.87C3204.8 1606.04 3208.28 1603.28 3208.28 1602.71C3208.28 1600.93 3207.27 1601.56 3199.95 1607.85ZM2919.01 1610.23L2911.86 1616.37L2919.6 1611.25C2923.86 1608.42 2927.34 1605.66 2927.34 1605.09C2927.34 1603.31 2926.34 1603.94 2919.01 1610.23ZM1561.97 1612.61L1554.83 1618.75L1562.56 1613.63C1566.82 1610.8 1570.3 1608.04 1570.3 1607.47C1570.3 1605.69 1569.29 1606.32 1561.97 1612.61V1612.61ZM1281.04 1614.99L1273.9 1621.13L1281.63 1616.01C1285.89 1613.18 1289.37 1610.42 1289.37 1609.85C1289.37 1608.07 1288.36 1608.7 1281.04 1614.99V1614.99ZM910.828 1612.07C910.828 1612.73 914.035 1615.55 917.967 1618.35C921.9 1621.15 925.107 1622.9 925.107 1622.25C925.107 1621.59 921.9 1618.77 917.967 1615.97C914.035 1613.17 910.828 1611.42 910.828 1612.07ZM1000.11 1617.37L992.966 1623.51L1000.69 1618.39C1004.96 1615.56 1008.43 1612.8 1008.43 1612.23C1008.43 1610.45 1007.43 1611.08 1000.11 1617.37V1617.37ZM1195.33 1617.39C1197.95 1619.88 1201.43 1623.46 1203.07 1625.36C1204.82 1627.37 1206.04 1627.68 1206.04 1626.12C1206.04 1624.64 1202.56 1621.05 1198.3 1618.14C1192.62 1614.25 1191.83 1614.06 1195.33 1617.39ZM1228.66 1653.09L1221.52 1659.22L1229.24 1654.11C1233.49 1651.3 1238.2 1649.77 1239.72 1650.71C1241.44 1651.78 1241.85 1651.38 1240.78 1649.67C1238.35 1645.72 1236.67 1646.2 1228.66 1653.09V1653.09ZM1508.07 1651.83L1502.45 1656.73L1509 1652.74C1514.61 1649.33 1516.18 1649.21 1519.72 1652C1523.49 1654.95 1523.56 1654.87 1520.61 1651.1C1516.43 1645.76 1514.92 1645.85 1508.07 1651.83ZM947.726 1655.47L940.587 1661.6L948.327 1656.48C952.577 1653.67 956.056 1650.9 956.056 1650.34C956.056 1648.55 955.047 1649.17 947.726 1655.47V1655.47ZM963.206 1650.17C963.206 1650.82 966.414 1653.65 970.346 1656.44C974.278 1659.24 977.485 1661 977.485 1660.34C977.485 1659.69 974.278 1656.86 970.346 1654.06C966.414 1651.27 963.206 1649.52 963.206 1650.17ZM1244.14 1652.55C1244.14 1653.2 1247.35 1656.03 1251.28 1658.83C1255.2 1661.62 1258.42 1663.38 1258.42 1662.72C1258.42 1662.07 1255.2 1659.24 1251.28 1656.44C1247.35 1653.65 1244.14 1651.9 1244.14 1652.55ZM1525.06 1654.94C1525.06 1655.58 1528.28 1658.42 1532.21 1661.21C1536.13 1664 1539.35 1665.76 1539.35 1665.1C1539.35 1664.45 1536.13 1661.62 1532.21 1658.83C1528.28 1656.03 1525.06 1654.28 1525.06 1654.94V1654.94ZM2882.1 1657.32C2882.1 1657.96 2885.32 1660.8 2889.26 1663.59C2893.18 1666.38 2896.39 1668.14 2896.39 1667.48C2896.39 1666.83 2893.18 1664 2889.26 1661.21C2885.32 1658.42 2882.1 1656.66 2882.1 1657.32V1657.32ZM3121.38 1664.99L3114.24 1671.12L3121.97 1666.01C3126.23 1663.19 3129.71 1660.42 3129.71 1659.86C3129.71 1658.08 3128.7 1658.7 3121.38 1664.99ZM3163.04 1659.7C3163.04 1660.36 3166.26 1663.18 3170.19 1665.98C3174.11 1668.76 3177.33 1670.52 3177.33 1669.86C3177.33 1669.22 3174.11 1666.38 3170.19 1663.59C3166.26 1660.8 3163.04 1659.04 3163.04 1659.7ZM2840.45 1667.37L2833.31 1673.51L2841.04 1668.39C2845.3 1665.57 2848.78 1662.8 2848.78 1662.24C2848.78 1660.46 2847.77 1661.08 2840.45 1667.37ZM3443.97 1662.08C3443.97 1662.74 3447.19 1665.56 3451.11 1668.36C3455.04 1671.14 3458.26 1672.9 3458.26 1672.24C3458.26 1671.6 3455.04 1668.76 3451.11 1665.98C3447.19 1663.18 3443.97 1661.42 3443.97 1662.08V1662.08ZM1483.4 1669.75L1476.26 1675.89L1484 1670.77C1488.25 1667.95 1491.73 1665.18 1491.73 1664.62C1491.73 1662.84 1490.72 1663.46 1483.4 1669.75V1669.75ZM1202.47 1672.13L1195.33 1678.27L1203.07 1673.15C1207.32 1670.33 1210.8 1667.56 1210.8 1667C1210.8 1665.22 1209.79 1665.84 1202.47 1672.13V1672.13ZM921.537 1674.51L914.397 1680.65L922.137 1675.53C926.387 1672.71 929.866 1669.94 929.866 1669.38C929.866 1667.6 928.858 1668.22 921.537 1674.51V1674.51ZM989.396 1669.22C989.396 1669.88 992.603 1672.7 996.535 1675.5C1000.46 1678.3 1003.67 1680.04 1003.67 1679.4C1003.67 1678.74 1000.46 1675.92 996.535 1673.12C992.603 1670.32 989.396 1668.56 989.396 1669.22ZM1270.32 1671.6C1270.32 1672.26 1273.54 1675.08 1277.47 1677.88C1281.39 1680.68 1284.61 1682.42 1284.61 1681.78C1284.61 1681.12 1281.39 1678.3 1277.47 1675.5C1273.54 1672.7 1270.32 1670.94 1270.32 1671.6ZM1555.68 1677.74C1562.56 1683.74 1565.6 1683.96 1565.35 1678.48C1565.23 1675.79 1564.72 1675.41 1563.92 1677.4C1562.95 1679.85 1561.37 1679.69 1556.37 1676.66L1550.06 1672.83L1555.68 1677.74V1677.74ZM2910.38 1678.48C2913.97 1683.06 2920.2 1684.1 2920.2 1680.12C2920.2 1678.73 2919.08 1678.29 2917.71 1679.14C2916.35 1679.97 2913.41 1679.24 2911.17 1677.49C2907.51 1674.62 2907.43 1674.72 2910.38 1678.48ZM2535.11 1716.57L2535.7 1724.31L2566.65 1724.43L2597.6 1724.54L2567.4 1723.76L2537.19 1722.97L2535.85 1715.9C2534.56 1709.05 2534.54 1709.07 2535.11 1716.57V1716.57ZM1846.74 1716.5L1846.47 1722.97L1816.11 1723.72L1785.76 1724.46L1816.19 1724.98C1848.29 1725.52 1850.82 1724.69 1848.14 1714.33C1847.4 1711.48 1846.93 1712.22 1846.74 1716.5ZM2505.95 1719.14C2505.95 1724.24 2464.32 1725.2 2462.29 1720.14C2461.57 1718.36 2461.01 1718.84 2460.9 1721.33C2460.64 1727.21 2505.25 1727.69 2507.51 1721.82C2508.28 1719.8 2508.25 1717.48 2507.43 1716.66C2506.61 1715.85 2505.95 1716.97 2505.95 1719.14ZM573.946 1956.59C568.711 1959.07 565.832 1961.12 567.555 1961.16C569.277 1961.2 573.028 1959.91 575.884 1958.31C578.751 1956.7 587.511 1954.72 595.376 1953.9L609.655 1952.43L596.566 1952.26C588.339 1952.15 579.919 1953.77 573.946 1956.59V1956.59ZM760.287 1953.43C764.559 1953.96 770.996 1953.95 774.566 1953.4C778.147 1952.86 774.645 1952.43 766.792 1952.44C758.927 1952.45 756.003 1952.89 760.287 1953.43V1953.43ZM529.897 1957.65C528.276 1959.61 525.194 1961.3 523.063 1961.42C520.627 1961.53 520.287 1962.04 522.146 1962.79C523.766 1963.45 527.925 1961.76 531.393 1959.04C534.849 1956.3 536.606 1954.08 535.28 1954.08C533.954 1954.08 531.529 1955.69 529.897 1957.65V1957.65ZM1020.34 1956.61C1027.54 1957.61 1036.65 1959.1 1040.57 1959.92C1045.73 1961 1045.07 1960.41 1038.19 1957.79C1032.96 1955.78 1023.86 1954.3 1017.97 1954.47L1007.24 1954.79L1020.34 1956.61V1956.61ZM1061.41 1955.73C1063.7 1956.32 1067.45 1956.32 1069.74 1955.73C1072.03 1955.13 1070.16 1954.63 1065.57 1954.63C1060.99 1954.63 1059.11 1955.13 1061.41 1955.73ZM3372.02 1955.83C3377.62 1956.33 3386.19 1956.33 3391.06 1955.81C3395.94 1955.3 3391.35 1954.89 3380.88 1954.9C3370.41 1954.91 3366.42 1955.32 3372.02 1955.83ZM3429.09 1955.81C3433.35 1956.33 3440.31 1956.33 3444.57 1955.81C3448.82 1955.27 3445.34 1954.84 3436.83 1954.84C3428.32 1954.84 3424.84 1955.27 3429.09 1955.81ZM959.637 1958.8C970.108 1959.76 980.976 1961.33 983.775 1962.28C987.005 1963.39 991.379 1962.58 995.685 1960.09C999.425 1957.93 1000.34 1956.95 997.725 1957.93C995.107 1958.9 990.28 1959.48 987.005 1959.22C983.741 1958.96 971.955 1958.37 960.827 1957.9L940.587 1957.06L959.637 1958.8V1958.8ZM1441.14 1958.14C1444.09 1958.71 1448.91 1958.71 1451.85 1958.14C1454.8 1957.57 1452.4 1957.11 1446.5 1957.11C1440.61 1957.11 1438.2 1957.57 1441.14 1958.14V1958.14ZM1748.27 1958.14C1751.21 1958.71 1756.03 1958.71 1758.97 1958.14C1761.92 1957.57 1759.51 1957.11 1753.63 1957.11C1747.73 1957.11 1745.32 1957.57 1748.27 1958.14V1958.14ZM1794.72 1958.17C1798.34 1958.72 1803.69 1958.71 1806.63 1958.14C1809.55 1957.57 1806.59 1957.12 1800.04 1957.14C1793.49 1957.15 1791.1 1957.62 1794.72 1958.17ZM2007.71 1958.17C2013.26 1958.71 2018.84 1958.72 2024.38 1958.2C2029.32 1957.69 2025.87 1957.26 2016.7 1957.25C2007.53 1957.23 2003.48 1957.65 2007.71 1958.17V1958.17ZM2275.6 1958.11C2277.9 1958.7 2281.65 1958.7 2283.94 1958.11C2286.23 1957.51 2284.36 1957.02 2279.77 1957.02C2275.19 1957.02 2273.31 1957.51 2275.6 1958.11ZM2516.06 1958.11C2518.35 1958.7 2522.11 1958.7 2524.39 1958.11C2526.68 1957.51 2524.81 1957.02 2520.24 1957.02C2515.65 1957.02 2513.78 1957.51 2516.06 1958.11V1958.11ZM2605.39 1958.19C2609.66 1958.72 2616.1 1958.71 2619.67 1958.16C2623.25 1957.62 2619.75 1957.19 2611.89 1957.2C2604.04 1957.21 2601.1 1957.65 2605.39 1958.19V1958.19ZM2886.3 1958.14C2889.27 1958.72 2893.55 1958.7 2895.83 1958.1C2898.11 1957.51 2895.68 1957.03 2890.45 1957.06C2885.2 1957.09 2883.34 1957.57 2886.3 1958.14ZM3722.52 1958.99C3729.73 1960.15 3740.44 1961.59 3746.33 1962.2L3757.04 1963.31L3746.33 1960.91C3738.47 1959.32 3730.52 1958.25 3722.52 1957.71L3709.43 1956.91L3722.52 1958.99ZM3789.78 1958.11C3792.07 1958.7 3795.82 1958.7 3798.11 1958.11C3800.4 1957.51 3798.53 1957.02 3793.95 1957.02C3789.36 1957.02 3787.49 1957.51 3789.78 1958.11ZM2498.07 1966.58C2490.65 1973.93 2490.62 1974.02 2497.5 1968.39C2501.49 1965.12 2505.78 1961.64 2507.02 1960.65C2508.26 1959.66 2508.52 1958.84 2507.58 1958.84C2506.64 1958.84 2502.36 1962.32 2498.07 1966.58ZM3230.3 1960.49C3232.58 1961.09 3236.34 1961.09 3238.63 1960.49C3240.93 1959.89 3239.04 1959.4 3234.47 1959.4C3229.88 1959.4 3228.01 1959.89 3230.3 1960.49ZM1990.27 1967.81C1987.65 1969.55 1981.26 1980.28 1982.84 1980.28C1983.29 1980.28 1986.03 1977.06 1988.94 1973.12C1994.44 1965.69 1994.65 1964.88 1990.27 1967.81V1967.81ZM822.74 1983.85C829.846 1991.04 836.203 1996.94 836.86 1996.94C837.518 1996.94 832.225 1991.04 825.12 1983.85C818.003 1976.64 811.646 1970.74 811 1970.74C810.342 1970.74 815.623 1976.64 822.74 1983.85ZM2661.42 1982.66C2661.42 1989.85 2661.86 1992.8 2662.4 1989.2C2662.95 1984.85 2662.95 1980.45 2662.4 1976.11C2661.86 1972.5 2661.42 1975.45 2661.42 1982.66ZM3017.53 1973.79C3018.67 1974.94 3022.7 1975.49 3026.45 1975.03C3032.75 1974.25 3032.58 1974.08 3024.36 1972.94C3019.24 1972.23 3016.33 1972.59 3017.53 1973.79V1973.79ZM1087.68 1983.85C1087.71 1990.4 1088.16 1992.79 1088.71 1989.17C1089.26 1985.55 1089.25 1980.2 1088.68 1977.26C1088.11 1974.34 1087.67 1977.3 1087.68 1983.85ZM1930.02 1982.66C1936.92 1993.34 1936.94 1993.37 1936.93 1990.79C1936.92 1989.59 1934.15 1985.39 1930.78 1981.47L1924.64 1974.31L1930.02 1982.66V1982.66ZM2813.07 1981.47C2805.29 1985.91 2808.01 1985.95 2818.16 1981.56C2822.55 1979.64 2824.56 1978.08 2822.59 1978.07C2820.63 1978.07 2816.34 1979.6 2813.07 1981.47V1981.47ZM3644.74 1995.75C3644.75 2004.92 3645.18 2008.37 3645.7 2003.43C3646.21 1997.89 3646.2 1992.31 3645.68 1986.77C3645.14 1982.54 3644.73 1986.58 3644.74 1995.75V1995.75ZM3530.87 1988.31C3534.8 1991.66 3538.81 1994.42 3539.8 1994.48C3540.78 1994.52 3541.67 1996.44 3541.77 1998.73C3541.91 2001.74 3542.32 2001.97 3543.28 1999.57C3544.56 1996.32 3538.1 1989.85 3528.49 1984.75C3525.87 1983.37 3526.95 1984.97 3530.87 1988.31V1988.31ZM2478.66 1991.19C2476.44 1994.58 2475.03 1997.76 2475.53 1998.26C2476.03 1998.76 2478.32 1996 2480.62 1992.11C2485.74 1983.42 2484.21 1982.7 2478.66 1991.19V1991.19ZM694.173 2000.02C685.198 2010.15 680.053 2018.14 680.064 2021.94C680.075 2023.25 681.764 2021.11 683.826 2017.18C685.889 2013.25 691.408 2006.04 696.077 2001.15C700.757 1996.27 704.111 1991.89 703.545 1991.44C702.978 1990.99 698.763 1994.85 694.173 2000.02ZM3203.82 2006.47C3203.7 2016.28 3204.4 2025.61 3205.41 2027.19C3206.41 2028.76 3206.87 2022.34 3206.44 2012.89C3205.32 1988.54 3204.11 1985.57 3203.82 2006.47V2006.47ZM647.109 2004.08C647.109 2008.67 647.596 2010.54 648.197 2008.25C648.797 2005.5 648.797 2002.66 648.197 1999.92C647.596 1997.63 647.109 1999.5 647.109 2004.08ZM3083.78 2007.66C3087.44 2012.24 3091.26 2015.99 3092.27 2015.99C3093.29 2015.99 3090.7 2012.24 3086.53 2007.66C3076.77 1996.93 3075.22 1996.93 3083.78 2007.66V2007.66ZM2145.3 2011.18C2140.21 2016.4 2136.51 2021.02 2137.08 2021.45C2137.65 2021.88 2142.27 2017.62 2147.35 2011.98C2158.96 1999.08 2157.62 1998.56 2145.3 2011.18V2011.18ZM2466.67 2010.78C2459.2 2019.49 2451.07 2030.81 2455.24 2026.7C2462.6 2019.45 2475.53 2003.85 2474.74 2003.2C2474.23 2002.79 2470.59 2006.2 2466.67 2010.78V2010.78ZM916.403 2021.94C916.415 2032.41 916.834 2036.41 917.333 2030.8C917.831 2025.2 917.831 2016.63 917.321 2011.76C916.811 2006.88 916.392 2011.47 916.403 2021.94V2021.94ZM1309.89 2010.04C1310.86 2012.66 1311.61 2018.01 1311.56 2021.94C1311.47 2028.4 1311.68 2028.6 1313.74 2024.02C1315.4 2020.34 1314.94 2017.1 1312.07 2012.11C1309.89 2008.35 1308.9 2007.42 1309.89 2010.04V2010.04ZM2201.86 2015.99C2201.86 2021.88 2202.32 2024.3 2202.89 2021.35C2203.46 2018.4 2203.46 2013.57 2202.89 2010.63C2202.32 2007.68 2201.86 2010.1 2201.86 2015.99ZM3546.16 2009.71C3549.32 2013.62 3558.25 2019.51 3558.25 2017.71C3558.25 2017.26 3554.77 2014.33 3550.51 2011.22C3545.72 2007.72 3544.06 2007.14 3546.16 2009.71V2009.71ZM1596.58 2011.23C1596.61 2013.19 1598.21 2016.87 1600.14 2019.42C1604.63 2025.36 1604.6 2023.16 1600.07 2014.47C1598.12 2010.72 1596.55 2009.26 1596.58 2011.23ZM2416.89 2016.58C2421.8 2026.28 2427.33 2032.67 2430.72 2032.58C2432.16 2032.55 2431.45 2031.41 2429.14 2030.08C2426.84 2028.74 2422.81 2023.41 2420.17 2018.24C2417.54 2013.08 2414.84 2008.85 2414.17 2008.85C2413.52 2008.85 2414.74 2012.33 2416.89 2016.58V2016.58ZM2768.82 2017.35L2759.5 2025.86L2769.62 2018.14C2778.87 2011.09 2781.12 2008.85 2778.94 2008.85C2778.5 2008.85 2773.95 2012.67 2768.82 2017.35V2017.35ZM844.159 2013.43C844.159 2014.74 846.572 2017.07 849.519 2018.58C852.465 2020.1 857.066 2023.08 859.752 2025.21C862.438 2027.35 861.361 2026.09 857.372 2022.43C845.994 2012 844.159 2010.75 844.159 2013.43V2013.43ZM1720.24 2018.3C1723.01 2022.19 1726.48 2026.12 1727.98 2027.04C1729.46 2027.96 1727.67 2024.77 1724.01 2019.97C1716.05 2009.53 1713.06 2008.2 1720.24 2018.3ZM643.279 2017.27C642.398 2019.79 641.964 2022.44 641.998 2025.11C642.111 2027.3 643.154 2025.93 644.299 2022.06C646.554 2014.55 645.749 2010.82 643.279 2017.27V2017.27ZM471.399 2019.14C470.741 2020.87 470.515 2032.4 470.9 2044.74L471.614 2067.18L472.781 2041.58C473.937 2016.22 473.744 2013.03 471.399 2019.14V2019.14ZM3904.95 2028.2C3902.97 2038.11 3904.89 2040.04 3907.04 2030.27C3907.93 2026.16 3908.18 2022.29 3907.57 2021.69C3906.97 2021.08 3905.79 2024 3904.95 2028.2V2028.2ZM2749.87 2038.01L2740.45 2048.13L2750.57 2038.72C2756.13 2033.55 2760.69 2028.99 2760.69 2028.6C2760.69 2026.8 2758.61 2028.6 2749.87 2038.01ZM2123.84 2036.44L2116.68 2042.58L2124.43 2037.46C2128.69 2034.63 2132.17 2031.87 2132.17 2031.3C2132.17 2029.52 2131.16 2030.14 2123.84 2036.44V2036.44ZM3572.23 2036.23C3573.51 2038.85 3576.31 2043.13 3578.44 2045.75L3582.32 2050.51L3579.98 2045.75C3578.22 2042.39 3576.14 2039.2 3573.77 2036.23L3569.89 2031.46L3572.23 2036.23V2036.23ZM1087.68 2045.75C1087.71 2052.3 1088.16 2054.69 1088.71 2051.08C1089.26 2047.45 1089.25 2042.1 1088.68 2039.17C1088.11 2036.24 1087.67 2039.2 1087.68 2045.75ZM3906.53 2050.51C3906.54 2057.06 3907 2059.45 3907.55 2055.84C3908.1 2051.89 3908.09 2047.88 3907.51 2043.94C3906.96 2041 3906.51 2043.96 3906.53 2050.51ZM918.613 2051.7C918.613 2057.6 919.078 2060.01 919.644 2057.06C920.211 2054.12 920.211 2049.29 919.644 2046.34C919.078 2043.41 918.613 2045.81 918.613 2051.7ZM1304.34 2057.65C1304.35 2064.2 1304.81 2066.61 1305.36 2062.98C1305.91 2059.03 1305.9 2055.02 1305.33 2051.08C1304.77 2048.14 1304.31 2051.11 1304.34 2057.65V2057.65ZM2112.39 2057.69C2110.21 2062.25 2108.92 2065.99 2109.52 2065.99C2111.15 2065.99 2118.38 2051.41 2117.29 2050.32C2116.78 2049.81 2114.57 2053.12 2112.39 2057.69V2057.69ZM2661.42 2061.23C2661.42 2068.43 2661.86 2071.38 2662.4 2067.77C2662.95 2063.43 2662.95 2059.03 2662.4 2054.68C2661.86 2051.08 2661.42 2054.03 2661.42 2061.23ZM3124.1 2053.33C3126.9 2055.71 3130.94 2061.14 3133.09 2065.39C3135.23 2069.65 3137.51 2073.13 3138.15 2073.13C3141.34 2073.13 3128.99 2053.9 3124.35 2051.62L3119 2049L3124.1 2053.33V2053.33ZM3206.78 2076.7C3206.79 2091.11 3207.18 2096.7 3207.65 2089.11C3208.13 2081.54 3208.13 2069.76 3207.64 2062.92C3207.17 2056.1 3206.78 2062.3 3206.78 2076.7V2076.7ZM2201.76 2061.23C2201.76 2065.81 2202.25 2067.68 2202.85 2065.39C2203.45 2062.65 2203.45 2059.81 2202.85 2057.06C2202.25 2054.77 2201.76 2056.64 2201.76 2061.23ZM2726.6 2069.68C2721 2081.41 2721.78 2083.4 2727.63 2072.32C2730.29 2067.27 2732.04 2062.74 2731.53 2062.22C2731.01 2061.71 2728.8 2065.06 2726.6 2069.68ZM916.233 2073.13C916.233 2079.03 916.698 2081.44 917.264 2078.5C917.831 2075.55 917.831 2070.72 917.264 2067.77C916.698 2064.83 916.233 2067.24 916.233 2073.13ZM852.964 2072.02C849.281 2075.25 847.218 2077.89 848.374 2077.89C849.53 2077.89 852.987 2075.22 856.069 2071.94C863.186 2064.37 861.611 2064.41 852.964 2072.02ZM3582.17 2071.45C3582.11 2072.48 3584.41 2077.84 3587.28 2083.35C3590.16 2088.87 3593.23 2098.19 3594.1 2104.09L3595.7 2114.8L3595.92 2105.28C3596.09 2097.35 3582.6 2064.16 3582.17 2071.45V2071.45ZM2100.03 2080.27C2098 2084.21 2096.86 2087.41 2097.52 2087.41C2098.18 2087.41 2100.38 2084.21 2102.41 2080.27C2104.43 2076.35 2105.56 2073.13 2104.91 2073.13C2104.25 2073.13 2102.05 2076.35 2100.03 2080.27ZM3142.53 2082.65C3144.4 2087.24 3147.26 2095.55 3148.92 2101.12C3150.56 2106.69 3152.42 2110.75 3153.03 2110.13C3153.65 2109.5 3153.03 2106.03 3151.65 2102.38C3150.13 2098.27 3148.87 2094.07 3147.86 2089.81C3146.89 2085.95 3145.19 2082.31 3142.85 2079.08C3139.44 2074.72 3139.41 2075.02 3142.53 2082.65V2082.65ZM1085.4 2093.38C1085.42 2102.53 1085.85 2106 1086.36 2101.06C1086.87 2095.52 1086.87 2089.93 1086.35 2084.39C1085.81 2080.16 1085.39 2084.21 1085.4 2093.38ZM3869.54 2079.57C3872.49 2080.14 3877.3 2080.14 3880.25 2079.57C3883.2 2079.01 3880.78 2078.54 3874.89 2078.54C3869 2078.54 3866.59 2079.01 3869.54 2079.57ZM3806.93 2086.12C3800.41 2092.65 3800.04 2094.18 3803.73 2099.33C3805.9 2102.34 3806.09 2102.25 3804.96 2098.73C3803.01 2092.66 3805.57 2087.74 3812.68 2083.87C3816.13 2082 3817.56 2080.42 3815.86 2080.38C3814.17 2080.32 3810.15 2082.9 3806.93 2086.12V2086.12ZM1315.25 2090.4C1317.05 2092.69 1320.8 2094.44 1323.59 2094.28C1328.4 2094.02 1328.41 2093.95 1323.89 2092.84C1320.91 2092.03 1318.09 2090.71 1315.56 2088.94C1312.45 2086.59 1312.42 2086.77 1315.25 2090.4V2090.4ZM2913.05 2092.42C2905.04 2097.06 2907.25 2096.78 2920.5 2091.48C2928.21 2088.4 2938.71 2092.27 2951.02 2102.69C2959.43 2109.82 2959.45 2109.82 2953.53 2103.17C2940.46 2088.47 2926.38 2084.74 2913.05 2092.42V2092.42ZM2087.82 2102.3C2083.46 2110.47 2078.27 2118.17 2072.31 2125.26C2067.25 2131 2063.12 2136.8 2063.12 2138.11C2063.12 2139.44 2066.27 2136.17 2070.11 2130.87C2073.95 2125.56 2078.26 2120.51 2079.68 2119.63C2082.52 2117.87 2097.25 2089.81 2095.33 2089.81C2094.69 2089.81 2091.3 2095.43 2087.82 2102.3V2102.3ZM1344.13 2093.92C1347.4 2094.52 1351.68 2096.26 1353.65 2097.76C1356.76 2100.15 1356.8 2099.97 1353.95 2096.35C1352.15 2094.06 1347.88 2092.32 1344.43 2092.5L1338.18 2092.83L1344.13 2093.92ZM2204.49 2118.38C2204.49 2133.43 2204.87 2139.6 2205.35 2132.07C2205.81 2124.53 2205.81 2112.21 2205.35 2104.69C2204.87 2097.15 2204.49 2103.32 2204.49 2118.38ZM799.078 2114.3C786.929 2127.92 786.102 2129.26 795.111 2120.76C804.959 2111.45 817.391 2096.75 815.159 2097.04C814.739 2097.09 807.509 2104.86 799.078 2114.3V2114.3ZM2659.13 2117.18C2659.14 2127.66 2659.56 2131.65 2660.07 2126.05C2660.57 2120.45 2660.55 2111.87 2660.04 2107C2659.53 2102.13 2659.13 2106.71 2659.13 2117.18ZM2893.04 2106.05C2891.13 2109.74 2887.88 2114.16 2885.83 2115.86C2883.78 2117.56 2882.1 2119.98 2882.1 2121.22C2882.1 2122.48 2884.63 2120.48 2887.7 2116.77C2893.87 2109.37 2899.64 2099.33 2897.73 2099.33C2897.06 2099.33 2894.96 2102.35 2893.04 2106.05ZM3844.54 2100.97C3846.83 2101.57 3850.58 2101.57 3852.87 2100.97C3855.16 2100.37 3853.29 2099.88 3848.7 2099.88C3844.12 2099.88 3842.25 2100.37 3844.54 2100.97ZM3870.13 2100.66C3878.48 2102.51 3893.45 2102.84 3892.41 2101.15C3891.79 2100.15 3885.71 2099.45 3878.92 2099.6C3872.12 2099.76 3868.17 2100.23 3870.13 2100.66ZM2966.48 2116.78C2970.15 2121.59 2973.63 2125.52 2974.22 2125.52C2975.87 2125.52 2965.56 2111.59 2962.51 2109.71C2961.02 2108.79 2962.81 2111.96 2966.48 2116.78ZM3901.74 2123.14C3901.74 2129.03 3902.2 2131.44 3902.77 2128.49C3903.33 2125.54 3903.33 2120.73 3902.77 2117.78C3902.2 2114.83 3901.74 2117.25 3901.74 2123.14ZM3377.91 2126.71C3377.94 2131.95 3378.42 2133.8 3378.99 2130.85C3379.57 2127.89 3379.54 2123.6 3378.94 2121.33C3378.35 2119.05 3377.88 2121.47 3377.91 2126.71V2126.71ZM1087.56 2132.66C1087.56 2137.24 1088.05 2139.12 1088.65 2136.83C1089.25 2134.08 1089.25 2131.24 1088.65 2128.49C1088.05 2126.2 1087.56 2128.08 1087.56 2132.66V2132.66ZM1349.17 2128.93C1349.01 2131.47 1346.51 2136.29 1343.59 2139.65L1338.31 2145.75L1345.02 2139.52C1349.32 2135.53 1351.32 2131.66 1350.59 2128.81C1349.5 2124.53 1349.43 2124.53 1349.17 2128.93ZM2975.81 2151.71C2975.81 2164.15 2976.22 2169.23 2976.71 2163.02C2977.2 2156.8 2977.2 2146.62 2976.71 2140.4C2976.22 2134.18 2975.81 2139.27 2975.81 2151.71V2151.71ZM1642.27 2142.18C1642.27 2146.77 1642.77 2148.64 1643.36 2146.35C1643.96 2143.61 1643.96 2140.76 1643.36 2138.02C1642.77 2135.73 1642.27 2137.6 1642.27 2142.18ZM2060.93 2144.38C2060.83 2146.24 2058.9 2149.99 2056.67 2152.71C2052.81 2157.38 2052.91 2157.37 2058.13 2152.55C2061.19 2149.74 2063.1 2145.99 2062.4 2144.22C2061.36 2141.6 2061.08 2141.64 2060.93 2144.38ZM2661.25 2149.33C2661.25 2153.91 2661.74 2155.78 2662.33 2153.49C2662.93 2150.75 2662.93 2147.91 2662.33 2145.16C2661.74 2142.87 2661.25 2144.74 2661.25 2149.33ZM3644.56 2150.52C3644.59 2155.76 3645.08 2157.62 3645.64 2154.66C3646.21 2151.7 3646.19 2147.4 3645.6 2145.14C3645 2142.86 3644.53 2145.27 3644.56 2150.52V2150.52ZM1086.98 2165.29C1086.33 2176.03 1086.66 2183.97 1087.71 2182.91C1088.75 2181.87 1089.28 2173.08 1088.87 2163.39L1088.15 2145.75L1086.98 2165.29V2165.29ZM2880.28 2156.47C2880.28 2161.05 2880.77 2162.93 2881.37 2160.64C2881.97 2157.89 2881.97 2155.05 2881.37 2152.3C2880.77 2150.01 2880.28 2151.88 2880.28 2156.47V2156.47ZM473.495 2169.56C473.518 2177.43 473.96 2180.35 474.492 2176.07C475.015 2171.32 475.004 2166.53 474.458 2161.79C473.926 2158.21 473.484 2161.71 473.495 2169.56ZM2204.66 2166.19C2204.6 2171.51 2205.34 2174.19 2206.42 2172.5C2208.8 2168.75 2208.9 2159.46 2206.56 2158.04C2205.58 2157.44 2204.73 2161.11 2204.66 2166.19ZM913.219 2162.75C913.207 2164.24 914.805 2168.52 916.766 2172.27C918.715 2176.02 920.324 2177.87 920.336 2176.39C920.347 2174.9 918.749 2170.62 916.789 2166.87C914.839 2163.11 913.23 2161.25 913.219 2162.75ZM3901.63 2170.75C3901.63 2175.34 3902.12 2177.21 3902.72 2174.92C3903.32 2172.18 3903.32 2169.34 3902.72 2166.59C3902.12 2164.3 3901.63 2166.17 3901.63 2170.75ZM3642.44 2187.42C3642.44 2199.87 3642.83 2204.96 3643.33 2198.74C3643.82 2192.51 3643.82 2182.34 3643.33 2176.11C3642.83 2169.89 3642.44 2174.98 3642.44 2187.42V2187.42ZM772.741 2174.24C772.741 2174.9 778.101 2178.15 784.64 2181.47C791.19 2184.8 796.551 2186.97 796.551 2186.31C796.551 2185.66 791.19 2182.4 784.64 2179.09C778.101 2175.77 772.741 2173.6 772.741 2174.24V2174.24ZM3579.95 2176.23C3579.8 2178.58 3578.04 2183.67 3576.04 2187.54C3574.04 2191.4 3572.95 2194.57 3573.6 2194.57C3576.16 2194.57 3582.28 2179.74 3581.29 2175.96C3580.36 2172.43 3580.2 2172.46 3579.95 2176.23V2176.23ZM3407.21 2187.28L3397.81 2198.14L3408.27 2188.1C3414.03 2182.59 3418.26 2177.69 3417.67 2177.24C3417.08 2176.78 3412.36 2181.29 3407.21 2187.28V2187.28ZM1082.42 2191.45C1082.32 2194.32 1083.31 2197.33 1084.62 2198.14C1085.93 2198.95 1087.16 2203.56 1087.35 2208.4C1087.67 2216.19 1087.83 2216.41 1088.75 2210.25C1089.31 2206.44 1088.69 2201.08 1087.38 2198.35C1086.03 2195.57 1084.84 2192.72 1083.8 2189.8C1083.05 2187.55 1082.55 2188.15 1082.42 2191.45V2191.45ZM1469.37 2193.57C1467.14 2199.39 1467.8 2200.99 1470.51 2196.33C1474.71 2189.11 1481.78 2195.27 1482.85 2207.08L1483.76 2217.19L1484.17 2207.2C1484.71 2194.5 1473.11 2183.82 1469.37 2193.57V2193.57ZM2037.21 2193.85C2037.05 2196.82 2033.33 2201.83 2028.6 2205.45C2022.52 2210.08 2020.36 2213.49 2020.6 2218.06L2020.91 2224.33L2022.02 2218.42C2022.63 2215.18 2026.89 2209.27 2031.5 2205.28C2037.38 2200.2 2039.52 2196.64 2038.68 2193.33C2037.58 2189.02 2037.46 2189.07 2037.21 2193.85V2193.85ZM3384.52 2191.3C3384.42 2195.23 3390.95 2199.98 3394.49 2198.55C3396.46 2197.76 3396.1 2197.26 3393.5 2197.14C3391.27 2197.04 3388.36 2195.08 3387.02 2192.79C3385.69 2190.49 3384.57 2189.83 3384.52 2191.3V2191.3ZM1664.39 2196.95C1668.85 2214.6 1669.81 2217.18 1670.05 2212.1C1670.18 2209.31 1668.63 2203.42 1666.59 2199.01C1664.16 2193.74 1663.41 2193.04 1664.39 2196.95ZM475.818 2205.29C475.841 2211.83 476.306 2214.23 476.85 2210.6C477.393 2206.99 477.382 2201.63 476.816 2198.7C476.249 2195.78 475.807 2198.74 475.818 2205.29ZM914.137 2225.52C914.137 2243.2 914.511 2250.43 914.975 2241.59C915.429 2232.75 915.429 2218.29 914.975 2209.45C914.511 2200.61 914.137 2207.84 914.137 2225.52V2225.52ZM2201.54 2196.95C2201.54 2198.92 2202.46 2202.67 2203.58 2205.29C2204.87 2208.28 2205.63 2208.72 2205.63 2206.48C2205.63 2204.51 2204.72 2200.75 2203.58 2198.14C2202.3 2195.14 2201.54 2194.7 2201.54 2196.95ZM3815.97 2196.21C3818.26 2196.81 3822.01 2196.81 3824.3 2196.21C3826.59 2195.61 3824.72 2195.12 3820.13 2195.12C3815.55 2195.12 3813.68 2195.61 3815.97 2196.21ZM3155.9 2205.2C3155.9 2211.01 3153.74 2215.91 3148.61 2221.76C3142.6 2228.6 3141.48 2231.66 3142.25 2239.11L3143.19 2248.14L3143.59 2238.94C3143.87 2232.47 3146.13 2227.3 3151.14 2221.59C3157.42 2214.43 3161.64 2196.95 3157.09 2196.95C3156.43 2196.95 3155.9 2200.66 3155.9 2205.2V2205.2ZM3870.73 2198.59C3873.02 2199.19 3876.77 2199.19 3879.06 2198.59C3881.35 2197.99 3879.48 2197.5 3874.89 2197.5C3870.31 2197.5 3868.44 2197.99 3870.73 2198.59ZM2885.04 2206.48C2885.04 2211.06 2885.53 2212.93 2886.13 2210.64C2886.73 2207.89 2886.73 2205.05 2886.13 2202.31C2885.53 2200.02 2885.04 2201.89 2885.04 2206.48ZM3806.12 2207.47C3805.98 2209.99 3804.02 2214.27 3801.77 2216.99C3797.84 2221.77 3797.9 2221.77 3803.2 2216.89C3806.54 2213.81 3808.24 2210.08 3807.55 2207.36C3806.45 2203.09 3806.39 2203.1 3806.12 2207.47V2207.47ZM1461.26 2214.09C1459.69 2215.67 1458.4 2218.31 1458.4 2219.96C1458.4 2223.17 1467.55 2229.08 1469.5 2227.13C1470.14 2226.48 1468.44 2225.25 1465.72 2224.38C1460.19 2222.63 1459.34 2218.4 1463.64 2214.09C1465.21 2212.52 1465.96 2211.24 1465.3 2211.24C1464.66 2211.24 1462.83 2212.52 1461.26 2214.09ZM2358.34 2219.78C2358.34 2222.07 2359.05 2223.22 2359.93 2222.34C2360.81 2221.46 2363.5 2222.53 2365.9 2224.71C2368.3 2226.89 2370.66 2228.23 2371.13 2227.69C2371.61 2227.15 2368.92 2224.21 2365.16 2221.18C2359.2 2216.34 2358.34 2216.17 2358.34 2219.78V2219.78ZM3642.26 2229.09C3642.28 2235.64 3642.74 2238.04 3643.29 2234.42C3643.83 2230.8 3643.82 2225.44 3643.25 2222.51C3642.69 2219.58 3642.24 2222.55 3642.26 2229.09ZM1304.56 2223.74C1296.37 2237.65 1295.83 2238.82 1300.01 2233.86C1304.84 2228.09 1309.01 2220.76 1307.45 2220.76C1306.83 2220.76 1305.53 2222.1 1304.56 2223.74ZM2487.21 2235.05C2487.08 2243.56 2487.82 2251.87 2488.88 2253.52C2489.92 2255.17 2490.37 2249.81 2489.89 2241.61C2488.61 2220.01 2487.48 2217.27 2487.21 2235.05ZM473.438 2236.24C473.461 2242.78 473.926 2245.18 474.47 2241.56C475.014 2237.94 475.002 2232.58 474.436 2229.65C473.869 2226.73 473.427 2229.69 473.438 2236.24ZM1825.41 2233.67C1825.2 2237.5 1823.21 2242.85 1820.96 2245.57C1816.96 2250.43 1816.99 2250.43 1822.35 2245.5C1826.31 2241.86 1827.52 2238.6 1826.78 2233.6L1825.76 2226.71L1825.41 2233.67ZM2713.07 2228.77C2713.07 2231.35 2724.9 2254.09 2726.25 2254.09C2726.91 2254.09 2724.62 2248.47 2721.16 2241.59C2714.52 2228.37 2713.07 2226.08 2713.07 2228.77ZM3572.54 2230.23C3578.43 2231.17 3585.39 2232.7 3588.01 2233.66C3591.05 2234.76 3590.62 2234.06 3586.82 2231.72C3583.54 2229.71 3576.58 2228.18 3571.35 2228.31L3561.82 2228.54L3572.54 2230.23ZM2381.93 2234.64C2383.21 2237.04 2386.14 2240.52 2388.43 2242.38C2391 2244.47 2390.42 2242.81 2386.92 2238.02C2380.66 2229.48 2378.32 2227.89 2381.93 2234.64ZM3522.54 2233.86C3524.17 2235.82 3526.71 2237.34 3528.18 2237.24C3529.86 2237.12 3529.75 2236.59 3527.88 2235.84C3526.23 2235.19 3525.5 2233.66 3526.23 2232.47C3526.98 2231.26 3525.78 2230.28 3523.58 2230.28C3520.29 2230.28 3520.1 2230.92 3522.54 2233.86V2233.86ZM1135.81 2235.06C1141.05 2236.08 1146.66 2236.19 1148.28 2235.31C1149.9 2234.43 1145.61 2233.59 1138.76 2233.44C1126.45 2233.19 1126.42 2233.21 1135.81 2235.06V2235.06ZM1103.07 2236.73C1106.02 2237.29 1110.83 2237.29 1113.78 2236.73C1116.73 2236.16 1114.33 2235.7 1108.43 2235.7C1102.54 2235.7 1100.13 2236.16 1103.07 2236.73ZM3811.21 2239.07C3813.5 2239.66 3817.25 2239.66 3819.54 2239.07C3821.83 2238.47 3819.96 2237.97 3815.37 2237.97C3810.79 2237.97 3808.91 2238.47 3811.21 2239.07ZM3836.21 2239.11C3839.16 2239.67 3843.97 2239.67 3846.92 2239.11C3849.87 2238.54 3847.45 2238.08 3841.56 2238.08C3835.67 2238.08 3833.26 2238.54 3836.21 2239.11ZM3873.11 2239.13C3877.46 2239.67 3881.85 2239.67 3886.2 2239.13C3889.8 2238.59 3886.86 2238.14 3879.66 2238.14C3872.45 2238.14 3869.51 2238.59 3873.11 2239.13ZM863.594 2253C859.605 2261.76 860.364 2263.63 864.682 2255.67C866.699 2251.95 867.9 2248.47 867.356 2247.92C866.812 2247.38 865.124 2249.66 863.594 2253V2253ZM3594.67 2258.85C3594.67 2266.06 3595.12 2269.01 3595.67 2265.4C3596.21 2261.06 3596.21 2256.66 3595.67 2252.31C3595.12 2248.71 3594.67 2251.65 3594.67 2258.85ZM475.943 2266C475.943 2275.82 476.362 2279.84 476.872 2274.93C477.394 2268.99 477.394 2263.01 476.872 2257.07C476.362 2252.16 475.943 2256.18 475.943 2266ZM1288.44 2253.09C1287.58 2255.47 1287.09 2257.97 1286.99 2260.49C1286.99 2262.49 1284.44 2266.13 1281.32 2268.58C1276.15 2272.64 1270.7 2286.56 1275.43 2283.65C1276.55 2282.96 1277.47 2280.4 1277.47 2277.96C1277.47 2275.53 1280.01 2271.58 1283.12 2269.18C1286.23 2266.77 1289.42 2261.32 1290.21 2257.07C1291.72 2248.84 1290.83 2246.85 1288.44 2253.09ZM2446.43 2256.77C2438.13 2264.04 2438.13 2264.05 2445.76 2258.98C2449.97 2256.16 2454.05 2252.86 2454.82 2251.6C2457.12 2247.89 2455.22 2249.06 2446.43 2256.77ZM2406.29 2260.05C2410.6 2264.63 2414.48 2268.38 2414.88 2268.38C2416.87 2268.38 2404.78 2254.15 2401.82 2253.03C2399.95 2252.3 2401.96 2255.46 2406.29 2260.05V2260.05ZM2731.39 2264.78C2733.57 2269.35 2735.78 2272.66 2736.29 2272.15C2737.38 2271.06 2730.16 2256.47 2728.53 2256.47C2727.93 2256.47 2729.22 2260.21 2731.39 2264.78V2264.78ZM1998.87 2268.27C1995.62 2270.77 1993.48 2273.29 1994.11 2273.86C1994.75 2274.43 1997.92 2272.36 2001.17 2269.27C2008.26 2262.49 2007.07 2261.98 1998.87 2268.27ZM864.614 2271.95C865.577 2274.57 867.107 2282.07 868.025 2288.62L869.679 2300.53L869.929 2289.81C870.076 2283.92 868.535 2276.42 866.529 2273.14C864.217 2269.37 863.514 2268.94 864.614 2271.95V2271.95ZM3207.57 2278.03C3208.32 2283.85 3209.32 2289.07 3209.8 2289.61C3211.73 2291.84 3210.42 2274.07 3208.4 2270.89C3207 2268.65 3206.7 2271.18 3207.57 2278.03V2278.03ZM1801.62 2279.2C1797.63 2287.96 1798.4 2289.83 1802.71 2281.86C1804.72 2278.14 1805.93 2274.66 1805.38 2274.12C1804.84 2273.57 1803.15 2275.85 1801.62 2279.2V2279.2ZM3117.67 2288.91C3113.16 2293.66 3106.26 2299.54 3102.33 2302C3098.41 2304.45 3096.62 2306.46 3098.37 2306.46C3101.35 2306.48 3130.07 2280.44 3127.2 2280.33C3126.48 2280.31 3122.2 2284.17 3117.67 2288.91V2288.91ZM2741.64 2291.59C2744.75 2295.86 2747.67 2299.34 2748.13 2299.34C2749.93 2299.34 2744.03 2290.4 2740.13 2287.23C2737.56 2285.15 2738.13 2286.81 2741.64 2291.59V2291.59ZM2361.5 2302.91C2361.51 2312.07 2361.94 2315.53 2362.45 2310.59C2362.97 2305.05 2362.97 2299.47 2362.44 2293.93C2361.91 2289.7 2361.49 2293.74 2361.5 2302.91ZM2666.11 2301.72C2666.11 2307.61 2666.57 2310.02 2667.14 2307.08C2667.71 2304.13 2667.71 2299.3 2667.14 2296.35C2666.57 2293.41 2666.11 2295.82 2666.11 2301.72ZM3913.72 2305.29C3913.74 2313.14 3914.18 2316.08 3914.71 2311.79C3915.24 2307.05 3915.24 2302.25 3914.69 2297.51C3914.14 2293.93 3913.71 2297.43 3913.72 2305.29ZM473.472 2313.62C473.472 2320.82 473.926 2323.77 474.47 2320.17C475.014 2315.82 475.014 2311.42 474.47 2307.08C473.926 2303.47 473.472 2306.42 473.472 2313.62ZM3203.91 2334.31C3203.7 2347.66 3204.32 2359.08 3205.3 2359.69C3206.28 2360.3 3206.79 2353.14 3206.43 2343.76C3205.26 2313.13 3204.32 2309.59 3203.91 2334.31V2334.31ZM868.682 2325.53C868.682 2332.72 869.135 2335.67 869.679 2332.08C870.223 2327.73 870.223 2323.33 869.679 2318.98C869.135 2315.37 868.682 2318.32 868.682 2325.53ZM1484.59 2318.42C1482.08 2320.07 1483.49 2320.3 1489.35 2319.23C1499.62 2317.34 1501.56 2315.98 1493.92 2316.04C1490.76 2316.05 1486.55 2317.13 1484.59 2318.42V2318.42ZM1463.8 2320.09C1467.41 2320.64 1472.77 2320.62 1475.7 2320.05C1478.63 2319.5 1475.66 2319.04 1469.11 2319.07C1462.57 2319.08 1460.17 2319.54 1463.8 2320.09V2320.09ZM1202.04 2337.43C1202.04 2345.94 1202.47 2349.43 1203 2345.17C1203.53 2340.92 1203.53 2333.95 1203 2329.69C1202.47 2325.44 1202.04 2328.92 1202.04 2337.43ZM3402.32 2334.71C3404.93 2337.79 3411.36 2342.46 3416.59 2345.09C3422.98 2348.5 3428.96 2352.6 3434.44 2357.33L3442.77 2364.81L3435.63 2356.85C3430.77 2351.76 3425.15 2347.45 3418.97 2344.09C3413.74 2341.44 3406.78 2336.99 3403.51 2334.19L3397.59 2329.1L3402.32 2334.71V2334.71ZM3059.48 2341.41C3054.23 2346.1 3052.09 2348.83 3054.71 2347.48C3059.13 2345.19 3072.28 2332.54 3070.01 2332.77C3069.45 2332.83 3064.72 2336.71 3059.48 2341.41V2341.41ZM3911.29 2348.15C3911.3 2354.69 3911.76 2357.09 3912.31 2353.47C3912.86 2349.52 3912.85 2345.51 3912.29 2341.57C3911.72 2338.64 3911.27 2341.6 3911.29 2348.15V2348.15ZM3380.29 2352.91C3380.32 2358.15 3380.8 2360.01 3381.38 2357.05C3381.95 2354.09 3381.92 2349.81 3381.32 2347.53C3380.74 2345.25 3380.27 2347.67 3380.29 2352.91ZM2668.4 2354.1C2668.4 2358.68 2668.88 2360.56 2669.48 2358.26C2670.07 2355.51 2670.07 2352.68 2669.48 2349.93C2668.88 2347.64 2668.4 2349.51 2668.4 2354.1V2354.1ZM865.996 2360.65C865.736 2367.18 863.9 2372.45 860.829 2375.53C858.211 2378.15 857.112 2380.29 858.392 2380.29C863.265 2380.29 868.274 2368.72 867.334 2359.64L866.393 2350.53L865.996 2360.65V2360.65ZM1247.66 2363.55C1251.22 2370.42 1260.02 2377.11 1262.37 2374.75C1263.02 2374.1 1261.31 2372.87 1258.58 2372.01C1255.85 2371.14 1251.98 2367.29 1250 2363.45C1248.01 2359.62 1245.86 2356.48 1245.2 2356.48C1244.55 2356.48 1245.66 2359.67 1247.66 2363.55ZM3003.65 2366.19C2997.82 2370.01 2994.08 2373.15 2995.35 2373.15C2997.96 2373.15 3015.43 2361.67 3015.43 2359.96C3015.43 2358.44 3015.51 2358.4 3003.65 2366.19V2366.19ZM2356.64 2367.67C2353.74 2370.68 2352.23 2373.15 2353.3 2373.15C2355.62 2373.15 2364.28 2363.89 2362.88 2362.9C2362.35 2362.51 2359.54 2364.65 2356.64 2367.67V2367.67ZM1891.7 2368.38C1887.12 2370.9 1884.23 2372.99 1885.28 2373.05C1887.8 2373.18 1901.23 2366.19 1901.23 2364.75C1901.23 2363.19 1901.08 2363.25 1891.7 2368.38V2368.38ZM1823.85 2369.66C1819.92 2371.46 1818.38 2372.98 1820.42 2373.04C1822.46 2373.1 1826.21 2371.58 1828.76 2369.65C1834.4 2365.38 1833.19 2365.39 1823.85 2369.66ZM2663.64 2370.75C2661.51 2374.16 2657.38 2375.5 2647.06 2376.14L2633.32 2377.01L2646.64 2377.46C2658.92 2377.88 2671.83 2371.59 2667.54 2367.29C2666.95 2366.7 2665.19 2368.26 2663.64 2370.75V2370.75ZM3587.86 2368.63C3586.96 2370.08 3581.81 2373.27 3576.4 2375.73C3571.01 2378.17 3567.97 2380.21 3569.68 2380.24C3574.04 2380.32 3585.39 2374.16 3589.07 2369.73C3590.77 2367.68 3591.56 2366 3590.82 2366C3590.08 2366 3588.75 2367.19 3587.86 2368.63V2368.63ZM585.868 2370.74C585.03 2372.09 585.993 2372.48 588.135 2371.67C590.186 2370.87 593.722 2371.69 595.999 2373.48C599.739 2376.41 599.818 2376.33 596.861 2372.55C593.257 2367.95 588.112 2367.1 585.868 2370.74V2370.74ZM1692.91 2372.04C1688.99 2373.84 1687.44 2375.36 1689.48 2375.42C1691.52 2375.48 1695.27 2373.96 1697.81 2372.03C1703.46 2367.77 1702.24 2367.77 1692.91 2372.04V2372.04ZM521.704 2372.93C520.967 2374.12 522.395 2374.56 524.865 2373.91C527.336 2373.27 530.078 2373.9 530.962 2375.32C531.436 2376.05 532.068 2376.66 532.812 2377.11C533.556 2377.56 534.392 2377.83 535.257 2377.91C538.804 2377.91 529.557 2370.94 525.874 2370.84C525.064 2370.84 524.266 2371.03 523.541 2371.39C522.817 2371.75 522.188 2372.28 521.704 2372.93V2372.93ZM779.881 2374.34C783.156 2376.21 787.439 2377.73 789.411 2377.73C791.372 2377.73 789.377 2376.16 784.969 2374.24C774.826 2369.84 772.106 2369.89 779.881 2374.34ZM2880.91 2373.22L2871.4 2374.99L2882.57 2374.82C2888.72 2374.73 2893.21 2373.78 2892.55 2372.71C2891.9 2371.65 2891.15 2370.92 2890.9 2371.1C2890.65 2371.29 2886.16 2372.25 2880.91 2373.22V2373.22ZM3864.18 2373.24C3868.79 2375.12 3893.36 2376.42 3891.35 2374.66C3890.81 2374.18 3883.4 2373.23 3874.89 2372.54C3865.81 2371.8 3861.38 2372.09 3864.18 2373.24V2373.24ZM959.637 2375.53C953.041 2377.21 952.951 2377.37 958.436 2377.6C961.711 2377.73 965.994 2376.8 967.966 2375.53C972.012 2372.91 969.927 2372.91 959.637 2375.53ZM1136.71 2376.19C1137.86 2377.35 1141.87 2377.9 1145.64 2377.43C1151.93 2376.64 1151.77 2376.47 1143.55 2375.34C1138.43 2374.63 1135.52 2375 1136.71 2376.19ZM1303.06 2374.83C1306 2375.4 1310.83 2375.4 1313.78 2374.83C1316.71 2374.26 1314.31 2373.8 1308.42 2373.8C1302.52 2373.8 1300.11 2374.26 1303.06 2374.83ZM1781.62 2374.83C1784.59 2375.4 1788.87 2375.37 1791.15 2374.78C1793.43 2374.18 1791 2373.72 1785.76 2373.75C1780.52 2373.78 1778.66 2374.26 1781.62 2374.83ZM1850.63 2374.83C1853.58 2375.4 1858.41 2375.4 1861.35 2374.83C1864.3 2374.26 1861.89 2373.8 1855.99 2373.8C1850.1 2373.8 1847.69 2374.26 1850.63 2374.83V2374.83ZM3301.12 2375.53L3283.28 2377.05L3299.93 2377.24C3309.1 2377.35 3319.28 2376.58 3322.55 2375.53C3329.57 2373.28 3327.46 2373.28 3301.12 2375.53V2375.53ZM3748.11 2374.83C3751.06 2375.4 3755.89 2375.4 3758.83 2374.83C3761.78 2374.26 3759.37 2373.8 3753.47 2373.8C3747.58 2373.8 3745.17 2374.26 3748.11 2374.83ZM606.709 2377.23C610.335 2377.79 615.684 2377.77 618.619 2377.2C621.543 2376.64 618.585 2376.19 612.035 2376.21C605.496 2376.22 603.094 2376.69 606.709 2377.23V2377.23ZM995.935 2377.29C1004.12 2377.75 1017.51 2377.75 1025.69 2377.29C1033.89 2376.82 1027.19 2376.45 1010.81 2376.45C994.45 2376.45 987.753 2376.82 995.935 2377.29ZM2292.27 2377.23C2295.87 2377.78 2301.77 2377.78 2305.37 2377.23C2308.96 2376.69 2306.02 2376.25 2298.82 2376.25C2291.61 2376.25 2288.67 2376.69 2292.27 2377.23ZM2570.82 2377.23C2575.17 2377.78 2579.57 2377.78 2583.91 2377.23C2587.52 2376.69 2584.57 2376.25 2577.37 2376.25C2570.17 2376.25 2567.22 2376.69 2570.82 2377.23ZM497.203 2379.61C500.818 2380.17 506.178 2380.15 509.102 2379.59C512.026 2379.02 509.068 2378.57 502.518 2378.59C495.979 2378.6 493.576 2379.07 497.203 2379.61V2379.61ZM2907.75 2379.64C2912.02 2380.17 2918.45 2380.16 2922.03 2379.61C2925.61 2379.07 2922.11 2378.64 2914.25 2378.65C2906.39 2378.66 2903.47 2379.1 2907.75 2379.64V2379.64ZM3342.19 2379.61C3345.8 2380.16 3351.69 2380.16 3355.29 2379.61C3358.89 2379.07 3355.94 2378.63 3348.74 2378.63C3341.54 2378.63 3338.59 2379.07 3342.19 2379.61V2379.61ZM2937.46 2381.99C2941.81 2382.54 2946.21 2382.54 2950.55 2381.99C2954.16 2381.45 2951.21 2381.01 2944.01 2381.01C2936.81 2381.01 2933.86 2381.45 2937.46 2381.99ZM3311.1 2586.85L3310.64 2601.73L3613.61 2601.14L3916.56 2600.56L3614.91 2599.94L3313.26 2599.33L3312.41 2585.65L3311.55 2571.97L3311.1 2586.85V2586.85ZM1351.68 2585.66L1351.27 2596.96H1403.64V2749.36L1416.14 2748.93L1428.64 2748.5L1417.33 2747.6L1406.02 2746.72V2594.58H1353.93L1353.01 2584.46L1352.1 2574.35L1351.68 2585.66V2585.66ZM1756.56 2661.85L1756.01 2749.36H1782.19V2681.2L1789.14 2674.54C1793.49 2670.37 1797.27 2668.55 1799.26 2669.68C1801.81 2671.13 1801.85 2670.85 1799.45 2668.28C1797 2665.63 1795.03 2666.47 1788.14 2673.16L1779.8 2681.24V2746.98H1758.44L1757.78 2660.66L1757.13 2574.35L1756.56 2661.85V2661.85ZM1780.34 2617.01C1780.05 2640.47 1780.09 2659.22 1780.43 2658.68C1780.77 2658.13 1783.18 2655.03 1785.79 2651.77C1789.36 2647.31 1789.52 2646.64 1786.41 2649.04C1782.57 2652.01 1782.26 2649.73 1781.59 2613.28L1780.87 2574.35L1780.34 2617.01V2617.01ZM1836.84 2585.66C1832.42 2591.23 1830.69 2594.27 1832.99 2592.42C1837.32 2588.94 1847.53 2575.54 1845.84 2575.54C1845.32 2575.54 1841.27 2580.09 1836.84 2585.66V2585.66ZM1866.88 2584.84L1859.91 2593.39L1867.95 2585.73C1872.37 2581.51 1875.51 2577.67 1874.92 2577.17C1874.33 2576.69 1870.71 2580.13 1866.88 2584.84ZM1956.55 2661.85L1955.99 2749.36H2055.98L2055.57 2738.05L2055.15 2726.74L2054.23 2736.86L2053.32 2746.98H1958.43L1957.77 2660.66L1957.11 2574.35L1956.55 2661.85V2661.85ZM2048.84 2584.99V2594.46L2013.72 2595.18L1978.6 2595.92L2014.91 2596.44L2051.22 2596.96V2586.25C2051.22 2580.36 2050.68 2575.54 2050.03 2575.54C2049.37 2575.54 2048.84 2579.79 2048.84 2584.99V2584.99ZM2142.25 2661.85L2141.68 2749.36H2167.87V2668.51L2208.94 2667.8L2250.01 2667.09L2207.75 2666.55L2165.49 2666.02V2746.98H2144.13L2143.47 2660.66L2142.82 2574.35L2142.25 2661.85V2661.85ZM2166.46 2611.25C2166.46 2631.55 2166.82 2639.86 2167.26 2629.71C2167.72 2619.56 2167.72 2602.95 2167.26 2592.8C2166.82 2582.65 2166.46 2590.96 2166.46 2611.25V2611.25ZM2270.25 2661.12V2746.72L2258.94 2747.6L2247.63 2748.5L2260.13 2748.93L2272.63 2749.36V2662.45C2272.63 2614.64 2272.1 2575.54 2271.44 2575.54C2270.78 2575.54 2270.25 2614.05 2270.25 2661.12V2661.12ZM2606.97 2635.07C2606.97 2668.46 2607.3 2682.13 2607.72 2665.42C2608.13 2648.72 2608.13 2621.4 2607.72 2604.7C2607.3 2588.01 2606.97 2601.67 2606.97 2635.07ZM3018.38 2661.85L3017.81 2749.36H3117.81L3117.39 2738.05L3116.97 2726.74L3116.06 2736.86L3115.15 2746.98H3020.25L3019.6 2660.66L3018.94 2574.35L3018.38 2661.85V2661.85ZM2395.65 2585.29C2389.54 2589.33 2383.78 2593.89 2382.86 2595.4C2381.94 2596.92 2384.89 2595.38 2389.41 2591.98C2393.92 2588.58 2400.84 2584.06 2404.77 2581.95C2408.69 2579.84 2410.75 2578.07 2409.34 2578.01C2407.93 2577.97 2401.77 2581.23 2395.65 2585.29ZM2492.86 2594.58C2497.97 2599.83 2502.68 2604.11 2503.34 2604.11C2504 2604.11 2500.35 2599.83 2495.24 2594.58C2490.11 2589.35 2485.4 2585.06 2484.74 2585.06C2484.08 2585.06 2487.73 2589.35 2492.86 2594.58V2594.58ZM1210.62 2601.13L1204.85 2607.68L1211.99 2601.73C1215.92 2598.46 1219.58 2595.51 1220.13 2595.18C1220.67 2594.85 1220.06 2594.58 1218.75 2594.58C1217.46 2594.58 1213.8 2597.53 1210.62 2601.13ZM1439.95 2596.35C1447.48 2596.82 1459.81 2596.82 1467.33 2596.35C1474.86 2595.87 1468.7 2595.49 1453.64 2595.49C1438.58 2595.49 1432.43 2595.87 1439.95 2596.35ZM1852.28 2602.32L1845.28 2610.06L1853.02 2603.07C1860.23 2596.55 1861.85 2594.58 1860.02 2594.58C1859.6 2594.58 1856.12 2598.07 1852.28 2602.32ZM2412.77 2599.49L2407.15 2604.4L2414.29 2600.22C2423.68 2594.71 2423.83 2594.58 2420.89 2594.58C2419.51 2594.58 2415.85 2596.79 2412.77 2599.49V2599.49ZM2459.52 2597.35C2462.14 2598.79 2468.07 2603.31 2472.72 2607.4C2478.41 2612.41 2477.86 2611.53 2471.06 2604.7C2465.52 2599.14 2459.58 2594.62 2457.87 2594.66C2456.16 2594.7 2456.9 2595.91 2459.52 2597.35V2597.35ZM2858.13 2601.13L2852.35 2607.68L2859.5 2601.73C2863.42 2598.46 2867.08 2595.51 2867.62 2595.18C2868.18 2594.85 2867.55 2594.58 2866.25 2594.58C2864.96 2594.58 2861.3 2597.53 2858.13 2601.13ZM3041.62 2621.97V2649.35H3108.28V2665.88L3075.55 2666.54L3042.81 2667.21L3042.71 2696.97L3042.6 2726.74L3043.37 2697.56L3044.15 2668.4H3110.66V2646.97H3044V2597.1L3079.12 2596.36L3114.24 2595.64L3077.93 2595.12L3041.62 2594.58V2621.97V2621.97ZM609.247 2601.13C687.589 2601.48 815.079 2601.48 892.56 2601.13C970.04 2600.78 905.943 2600.5 750.121 2600.5C594.3 2600.5 530.906 2600.78 609.247 2601.13ZM1832.18 2625.54C1825.38 2633.4 1820.35 2639.83 1821 2639.83C1821.65 2639.83 1827.76 2633.4 1834.56 2625.54C1841.37 2617.68 1846.4 2611.25 1845.75 2611.25C1845.1 2611.25 1838.99 2617.68 1832.18 2625.54ZM1203.74 2624.41C1203.61 2628.44 1210.69 2637.22 1216.28 2640.02C1220.64 2642.2 1220.47 2641.7 1215.22 2637.06C1211.76 2634 1207.77 2629.35 1206.37 2626.73C1204.96 2624.11 1203.77 2623.06 1203.74 2624.41ZM1995.87 2648.74C2005.35 2649.19 2020.89 2649.19 2030.39 2648.74C2039.88 2648.28 2032.11 2647.92 2013.13 2647.92C1994.14 2647.92 1986.37 2648.28 1995.87 2648.74ZM2385.08 2654.11C2385.08 2658.7 2385.57 2660.57 2386.17 2658.28C2386.76 2655.53 2386.76 2652.69 2386.17 2649.95C2385.57 2647.66 2385.08 2649.53 2385.08 2654.11V2654.11ZM2492.45 2662.45C2492.45 2671.62 2492.88 2675.08 2493.4 2670.13C2493.91 2664.59 2493.91 2659.01 2493.38 2653.46C2492.86 2649.23 2492.44 2653.28 2492.45 2662.45ZM2385.08 2670.78C2385.08 2675.36 2385.57 2677.24 2386.17 2674.95C2386.76 2672.2 2386.76 2669.36 2386.17 2666.61C2385.57 2664.32 2385.08 2666.2 2385.08 2670.78ZM1995.87 2667.79C2005.35 2668.24 2020.89 2668.24 2030.39 2667.79C2039.88 2667.33 2032.11 2666.96 2013.13 2666.96C1994.14 2666.96 1986.37 2667.33 1995.87 2667.79ZM2920.69 2675.38C2923.65 2680.54 2926.48 2684.34 2926.98 2683.84C2928.01 2682.82 2918.01 2666.02 2916.36 2666.02C2915.77 2666.02 2917.72 2670.24 2920.69 2675.38ZM1234.98 2674.4C1241.07 2677.57 1248.31 2683.02 1251.05 2686.51C1253.79 2690 1256.04 2691.84 1256.04 2690.59C1256.04 2685.46 1232.31 2668.13 1225.8 2668.51C1224.75 2668.57 1228.89 2671.22 1234.98 2674.4ZM2882.48 2674.4C2888.58 2677.57 2895.81 2683.02 2898.55 2686.51C2901.29 2690 2903.53 2691.84 2903.53 2690.59C2903.53 2685.46 2879.8 2668.13 2873.3 2668.51C2872.26 2668.57 2876.38 2671.22 2882.48 2674.4ZM1274.23 2676.73C1279.72 2686.14 1279.85 2686.27 1279.85 2683.35C1279.85 2681.97 1277.64 2678.31 1274.94 2675.21L1270.05 2669.59L1274.23 2676.73V2676.73ZM609.247 2682.09C687.589 2682.44 815.079 2682.44 892.56 2682.09C970.04 2681.74 905.943 2681.46 750.121 2681.46C594.3 2681.46 530.906 2681.74 609.247 2682.09ZM2630.3 2687.45C2630.3 2692.03 2630.78 2693.9 2631.38 2691.61C2631.98 2688.87 2631.98 2686.03 2631.38 2683.28C2630.78 2680.99 2630.3 2682.86 2630.3 2687.45V2687.45ZM3311.1 2695.18L3311.55 2710.06L3312.41 2696.38L3313.26 2682.7L3614.91 2682.09L3916.56 2681.48L3613.61 2680.89L3310.64 2680.3L3311.1 2695.18V2695.18ZM1846.47 2699.35C1851.81 2707.21 1856.71 2713.64 1857.36 2713.64C1858.02 2713.64 1854.19 2707.21 1848.85 2699.35C1843.52 2691.5 1838.62 2685.07 1837.96 2685.07C1837.3 2685.07 1841.14 2691.5 1846.47 2699.35ZM2928.06 2699.35C2928.06 2706.56 2928.5 2709.51 2929.04 2705.9C2929.6 2701.55 2929.6 2697.15 2929.04 2692.8C2928.5 2689.21 2928.06 2692.16 2928.06 2699.35ZM1280.53 2700.54C1280.54 2707.09 1281 2709.49 1281.56 2705.87C1282.11 2701.92 1282.09 2697.91 1281.53 2693.96C1280.96 2691.03 1280.51 2693.99 1280.53 2700.54ZM2389.29 2693.12C2389.29 2695.68 2396.37 2708.87 2397.74 2708.87C2398.4 2708.87 2397.16 2705.39 2395 2701.14C2390.58 2692.45 2389.29 2690.64 2389.29 2693.12V2693.12ZM1256.64 2702.92C1256.66 2708.16 1257.15 2710.03 1257.73 2707.06C1258.29 2704.1 1258.27 2699.82 1257.67 2697.54C1257.08 2695.26 1256.62 2697.69 1256.64 2702.92V2702.92ZM2904.14 2702.92C2904.16 2708.16 2904.64 2710.03 2905.22 2707.06C2905.79 2704.1 2905.77 2699.82 2905.17 2697.54C2904.58 2695.26 2904.11 2697.69 2904.14 2702.92ZM2484.52 2698.77C2484.52 2700.2 2480.61 2706.54 2475.82 2712.86C2471.04 2719.19 2469.48 2722.28 2472.33 2719.75C2479.06 2713.79 2487.87 2699.52 2485.98 2697.64C2485.17 2696.84 2484.52 2697.35 2484.52 2698.77V2698.77ZM2698.48 2717.6C2696.69 2719.78 2692 2723.52 2688.08 2725.92C2684.15 2728.32 2682.29 2730.29 2683.94 2730.29C2686.94 2730.31 2706.1 2713.83 2703.24 2713.7C2702.43 2713.67 2700.29 2715.42 2698.48 2717.6ZM2646.93 2723.75C2650.62 2727.36 2654.96 2730.27 2656.57 2730.24C2658.19 2730.19 2657.36 2728.98 2654.74 2727.53C2651.39 2725.58 2648.17 2723.42 2645.11 2721.06C2642.42 2718.94 2643.25 2720.16 2646.93 2723.75ZM1180.89 2721.03C1180.05 2722.38 1180.02 2724.13 1180.8 2724.91C1181.6 2725.69 1182.23 2725.05 1182.23 2723.47C1182.23 2721.32 1183.44 2721.26 1187.2 2723.28C1189.94 2724.73 1192.61 2725.48 1193.17 2724.93C1193.71 2724.39 1191.51 2722.73 1188.28 2721.26C1184.29 2719.45 1181.91 2719.37 1180.89 2721.03V2721.03ZM2828.39 2721.03C2827.55 2722.38 2827.52 2724.13 2828.3 2724.91C2829.09 2725.69 2829.74 2725.05 2829.74 2723.47C2829.74 2721.32 2830.94 2721.26 2834.7 2723.28C2837.43 2724.73 2840.11 2725.48 2840.66 2724.93C2841.21 2724.39 2839.01 2722.73 2835.78 2721.26C2831.8 2719.45 2829.41 2719.37 2828.39 2721.03V2721.03ZM2491.53 2729.72L2483.33 2738.64L2492.26 2730.43C2500.56 2722.8 2502.28 2720.79 2500.46 2720.79C2500.06 2720.79 2496.04 2724.8 2491.53 2729.72V2729.72ZM1843.04 2736L1851.9 2749.36H1865.85C1873.52 2749.36 1879.8 2748.55 1879.8 2747.57C1879.81 2746.59 1873.65 2746.12 1866.11 2746.51L1852.42 2747.25L1845.66 2736.4C1841.94 2730.44 1837.84 2724.9 1836.53 2724.09C1835.23 2723.29 1838.15 2728.65 1843.04 2736V2736ZM2712.94 2734.48L2704.74 2743.41L2713.67 2735.2C2721.98 2727.56 2723.69 2725.55 2721.87 2725.55C2721.48 2725.55 2717.45 2729.56 2712.94 2734.48V2734.48ZM2433.93 2731.98C2436.87 2732.55 2441.69 2732.55 2444.64 2731.98C2447.58 2731.42 2445.18 2730.95 2439.29 2730.95C2433.39 2730.95 2430.98 2731.42 2433.93 2731.98V2731.98ZM2623.78 2734.69C2626.38 2737.76 2630.66 2741.38 2633.29 2742.73C2638.34 2745.31 2637.61 2744.52 2626.19 2735.03C2619.32 2729.32 2619.24 2729.31 2623.78 2734.69ZM2664.89 2731.99C2667.85 2732.56 2672.14 2732.54 2674.41 2731.94C2676.69 2731.35 2674.27 2730.88 2669.03 2730.91C2663.8 2730.93 2661.93 2731.42 2664.89 2731.99ZM2392.98 2737.65C2394.61 2740.29 2408.43 2747.67 2409.58 2746.52C2410.03 2746.08 2406.16 2743.41 2400.99 2740.57C2395.84 2737.75 2392.23 2736.43 2392.98 2737.65V2737.65ZM2472.62 2742.22C2468.04 2744.72 2465.14 2746.82 2466.19 2746.88C2468.71 2747.01 2482.14 2740.02 2482.14 2738.58C2482.14 2737.03 2482 2737.07 2472.62 2742.22ZM1527.49 2745.19C1527.45 2748.65 1529.64 2749.36 1540.54 2749.36C1547.75 2749.36 1553.63 2748.54 1553.63 2747.56C1553.63 2746.56 1548.68 2746.14 1542.63 2746.63C1535.15 2747.22 1530.96 2746.47 1529.57 2744.26C1527.97 2741.73 1527.51 2741.93 1527.49 2745.19ZM1670.3 2744.47C1670.3 2745.71 1664.67 2747.11 1657.8 2747.6L1645.3 2748.47L1658.99 2748.92C1669.77 2749.27 1672.68 2748.6 1672.68 2745.79C1672.68 2743.82 1672.13 2742.22 1671.49 2742.22C1670.83 2742.22 1670.3 2743.23 1670.3 2744.47ZM1213.78 2751.06C1218.13 2751.6 1222.52 2751.6 1226.87 2751.06C1230.47 2750.51 1227.53 2750.07 1220.33 2750.07C1213.12 2750.07 1210.18 2750.51 1213.78 2751.06ZM2431.59 2751.08C2435.86 2751.61 2442.3 2751.6 2445.87 2751.06C2449.45 2750.51 2445.95 2750.08 2438.1 2750.09C2430.23 2750.11 2427.31 2750.55 2431.59 2751.08V2751.08ZM2662.53 2751.08C2666.8 2751.61 2673.24 2751.6 2676.81 2751.06C2680.39 2750.51 2676.88 2750.08 2669.03 2750.09C2661.18 2750.11 2658.24 2750.55 2662.53 2751.08V2751.08ZM2861.28 2751.06C2864.88 2751.6 2870.77 2751.6 2874.38 2751.06C2877.97 2750.51 2875.02 2750.07 2867.83 2750.07C2860.62 2750.07 2857.67 2750.51 2861.28 2751.06V2751.06ZM3311.1 2803.52L3310.64 2818.4L3613.61 2817.83L3916.56 2817.24L3614.91 2816.62L3313.26 2816.01L3312.41 2802.32L3311.55 2788.64L3311.1 2803.52V2803.52ZM609.247 2817.81C687.589 2818.15 815.079 2818.15 892.56 2817.81C970.04 2817.46 905.943 2817.18 750.121 2817.18C594.3 2817.18 530.906 2817.46 609.247 2817.81ZM1329.25 2898.77C1803.59 2899.1 2579.78 2899.1 3054.12 2898.77C3528.47 2898.43 3140.36 2898.16 2191.68 2898.16C1243.01 2898.16 854.902 2898.43 1329.25 2898.77V2898.77ZM1329.25 3034.48C1803.59 3034.82 2579.78 3034.82 3054.12 3034.48C3528.47 3034.15 3140.36 3033.88 2191.68 3033.88C1243.01 3033.88 854.902 3034.15 1329.25 3034.48Z" fill="#BC1224"/>
</svg>
