<svg width="756" height="756" viewBox="0 0 756 756" fill="none" xmlns="http://www.w3.org/2000/svg">
<g clip-path="url(#clip0)">
<path d="M378.5 663.978C536.177 663.978 664 536.164 664 378.497C664 220.83 536.177 93.0161 378.5 93.0161C220.823 93.0161 93 220.83 93 378.497C93 536.164 220.823 663.978 378.5 663.978Z" fill="#F0F0F0"/>
<path opacity="0.1" d="M593.596 566.264C536.058 632.062 449.133 670.68 355.318 663.048C209.998 651.209 98.9766 532.498 93.2285 390.434C185.14 383.182 200.5 367.308 302.881 402.215C405.261 437.122 422.676 545.993 593.596 566.264Z" fill="black"/>
<path opacity="0.1" d="M549.21 607.337C495.46 647.46 427.435 668.929 355.317 663.048C230.097 652.846 130.343 563.294 101.47 447.819C180.439 437.693 207.162 312.549 309.523 347.456C411.884 382.363 324.065 539.16 549.21 607.337Z" fill="black"/>
<path d="M659.222 412.227C661.183 399.208 662.458 387.388 663.162 374.903C663.943 359.733 662.268 345.877 659.489 330.517C658.214 323.417 656.843 314.567 655.035 307.239C654.788 306.287 654.54 305.355 654.293 304.403C653.779 302.519 653.265 300.654 652.713 298.769C652.694 298.693 652.656 298.598 652.637 298.522C643.139 266.355 627.913 236.226 608.651 209.541C561.353 145.208 487.504 100.956 401.682 93.9516C348.484 89.612 297.494 100.175 252.823 122.121C251.529 122.806 250.329 123.872 249.435 125.033L249.416 125.052C235.122 143.21 224.939 172.921 271.323 201.509C281.354 207.695 292.45 213.443 304.194 219.039C345.249 238.624 395.059 257.467 434.591 286.112C437.541 288.263 437.732 292.602 434.972 295.001C427.777 301.244 421.648 308.552 416.795 316.623C404.728 336.684 400.521 361.408 407.012 385.828C407.64 388.188 408.363 390.51 409.163 392.775C410.457 396.448 415.862 395.877 416.3 392.014C418.146 375.683 426.787 360.78 440.016 351.035C445.802 346.771 450.96 343.688 457.336 341.689C463.712 339.691 468.528 338.72 476.217 339.9C483.906 341.08 489.407 344.811 494.07 351.454C509.563 373.589 523.648 400.845 521.345 427.644C521.383 429.414 521.364 431.165 521.288 432.935C521.136 437.675 520.679 442.357 519.937 447.001C517.995 459.125 514.093 470.793 508.498 481.565L507.888 480.918C485.905 454.291 456.194 436.19 422.771 428.443C420.031 427.815 417.861 430.765 419.25 433.202C434.762 460.115 447.039 489.502 455.414 520.945C464.569 555.3 468.432 589.846 467.538 623.687C467.462 626.504 470.812 628.065 472.905 626.181C493.747 607.433 509.202 583.432 517.672 556.861C517.672 556.861 519.232 552.598 520.108 550.599C528.844 531.509 540.911 517.919 551.151 507.565C563.028 495.574 567.158 497.116 576.694 494.851C620.718 484.325 651.286 459.277 659.222 412.227Z" fill="#232323"/>
<path d="M388.893 93.2281C386.78 93.152 384.667 93.0758 382.573 93.0378C381.279 93.0187 380.004 93.0378 378.71 93.0378C376.844 93.0378 374.96 93.0378 373.095 93.0568C371.724 93.0758 370.354 93.1329 368.965 93.171C367.214 93.2281 365.443 93.2852 363.692 93.3804C362.265 93.4565 360.837 93.5517 359.429 93.6468C357.735 93.761 356.06 93.8752 354.385 94.0085C352.919 94.1227 351.473 94.2749 350.026 94.4082C348.409 94.5604 346.772 94.7508 345.154 94.9221C343.669 95.0934 342.204 95.2837 340.719 95.474C339.139 95.6834 337.579 95.9118 336.018 96.1402C334.514 96.3686 333.03 96.597 331.526 96.8444C330.003 97.0919 328.481 97.3774 326.977 97.6438C325.454 97.9293 323.951 98.1958 322.447 98.5003C320.982 98.7858 319.516 99.1094 318.05 99.433C316.509 99.7565 314.986 100.099 313.463 100.442C312.055 100.765 310.665 101.127 309.257 101.47C307.696 101.869 306.136 102.231 304.575 102.65C303.281 102.992 301.986 103.373 300.692 103.754C299.055 104.21 297.437 104.667 295.819 105.143C294.868 105.428 293.935 105.752 292.984 106.057C288.891 107.351 284.837 108.721 280.821 110.168C280.269 110.377 279.698 110.548 279.146 110.758C277.376 111.405 275.644 112.109 273.893 112.794C272.846 113.213 271.799 113.594 270.753 114.032C269.097 114.698 267.479 115.421 265.842 116.125C264.928 116.525 263.996 116.906 263.082 117.324C256.478 121.302 254.003 129.905 257.829 136.891C272.751 164.146 293.65 186.948 320.772 199.929C352.387 215.099 389.349 219.495 425.855 209.769C432.802 207.923 437.77 201.87 438.341 194.695C439.502 180.287 449.552 167.496 464.322 163.575C468.033 162.586 471.764 162.243 475.38 162.452C477.873 162.605 481.185 163.195 484.192 163.728C487.2 164.26 492.7 165.707 497.63 166.982C547.878 180.096 595.328 209.902 625.229 253.051C637.791 271.171 644.872 280.326 652.104 296.999V296.98C642.588 265.385 627.551 235.769 608.575 209.503C561.354 145.208 487.504 100.956 401.683 93.9514C398.485 93.6849 395.288 93.4946 392.09 93.3423C391.024 93.2852 389.958 93.2662 388.893 93.2281Z" fill="#C6C5C6"/>
<path d="M369.383 235.864C347.247 233.047 326.349 224.444 308.762 211.254C306.516 209.56 307.982 205.963 310.761 206.306C332.896 209.142 353.795 217.726 371.382 230.916C373.628 232.61 372.162 236.226 369.383 235.864Z" fill="#C6C5C6"/>
<path d="M663.163 374.903C663.943 359.733 662.268 345.877 659.489 330.517C658.442 324.693 657.319 317.689 655.949 311.293C652.542 329.527 644.377 350.483 635.069 366.3C623.992 385.124 616.626 397.096 608.86 407.773C603.683 415.006 602.237 422.562 605.663 430.861C608.575 437.884 614.97 443.042 622.507 443.937C637.049 445.688 647.346 434.858 647.841 422.619C647.841 422.619 650.201 394.583 653.551 381.412C653.95 380.061 655.15 378.786 656.615 378.405C658.861 377.815 661.507 378.881 662.116 381.127C662.325 382.097 662.439 383.316 662.477 384.439C662.763 381.279 662.972 378.119 663.163 374.903Z" fill="#C6C5C6"/>
<path d="M495.498 477.378C481.565 461.409 463.902 449.209 444.26 441.748C442.414 441.043 440.872 443.308 442.166 444.812C456.099 460.781 473.762 472.981 493.404 480.442C495.25 481.147 496.792 478.863 495.498 477.378Z" fill="#3A3A3A"/>
<path d="M407.259 380.27C408.211 384.362 410.952 381.393 411.161 378.043C411.408 374.008 407.735 362.474 409.277 351.092C410.78 340.015 421.763 317.27 418.279 317.917C407.449 336.113 403.072 358.134 407.259 380.27Z" fill="#3A3A3A"/>
<path d="M245.267 148.863C244.182 148.044 242.602 148.71 242.431 150.043C240.47 165.46 247.684 183.37 276.044 200.862C278.746 202.518 281.525 204.155 284.38 205.753C285.846 206.572 287.54 205.087 286.912 203.545C277.985 181.334 263.387 162.7 245.267 148.863Z" fill="#3A3A3A"/>
<path d="M484.953 121.093C487.751 120.351 492.909 118.904 495.669 118.105C495.555 118.048 495.441 117.991 495.326 117.953C495.307 117.953 495.307 117.934 495.288 117.934C466.453 104.991 434.972 96.6734 401.682 93.9516C359.219 90.4876 318.183 96.5402 280.63 110.282C343.669 134.417 414.758 139.784 484.953 121.093Z" fill="#B1B1B1"/>
</g>
<defs>
<clipPath id="clip0">
<rect width="571" height="571" fill="white" transform="translate(93 93)"/>
</clipPath>
</defs>
</svg>
