<svg width="545" height="92" viewBox="0 0 545 92" fill="none" xmlns="http://www.w3.org/2000/svg">
<path d="M83.9035 45.6719L62.3281 2.49119C60.6685 -0.830398 54.8598 -0.830398 53.2001 2.49119L32.4546 45.6719L58.179 61.4494L83.9035 45.6719Z" fill="url(#paint0_linear)"/>
<path d="M7.56023 30.725C4.24094 28.2338 -0.737983 31.5554 0.0918379 35.7074L10.0497 91.3441L32.4549 45.6722L7.56023 30.725Z" fill="url(#paint1_linear)"/>
<path d="M32.4552 45.6719L10.05 91.3438L58.1797 61.4495L32.4552 45.6719Z" fill="url(#paint2_linear)"/>
<path d="M108.798 30.725L83.9033 45.6722L106.308 91.3441L116.266 35.7074C117.096 31.5554 112.117 28.2338 108.798 30.725Z" fill="url(#paint3_linear)"/>
<path d="M58.179 61.4495L106.309 91.3438L83.9034 45.6719L58.179 61.4495Z" fill="url(#paint4_linear)"/>
<path d="M10.05 91.344H106.309L58.1797 61.4496L10.05 91.344Z" fill="url(#paint5_linear)"/>
<path d="M145.312 6.64374H179.334C190.122 6.64374 197.59 9.13493 202.569 14.1173C206.718 18.2693 209.208 24.0821 209.208 30.7253C209.208 41.5205 203.399 48.994 194.271 52.3156L211.697 88.8531H188.462L174.355 55.6372H166.057V88.8531H146.141V6.64374H145.312ZM178.504 41.5205C185.143 41.5205 189.292 38.1989 189.292 33.2165C189.292 27.4037 185.143 24.9125 178.504 24.9125H165.227V41.5205H178.504Z" fill="#292929"/>
<path d="M214.187 73.9059C214.187 62.2803 222.485 56.4676 235.762 56.4676C240.741 56.4676 245.72 57.2979 249.039 58.9587V58.1283C249.039 52.3156 245.72 48.994 238.252 48.994C232.443 48.994 228.294 49.8244 223.315 52.3156L219.166 39.0292C225.805 36.538 232.443 34.8772 241.571 34.8772C251.529 34.8772 258.168 37.3684 262.317 41.5204C266.466 45.6724 268.125 51.4852 268.125 58.9587V90.5139H249.039V84.7011C244.89 88.8531 239.911 91.3443 232.443 91.3443C221.655 91.3443 214.187 85.5315 214.187 73.9059ZM249.039 69.7539V67.2627C247.38 66.4323 244.061 65.6019 241.571 65.6019C235.762 65.6019 232.443 68.0931 232.443 72.2451C232.443 76.3971 234.933 78.0579 239.082 78.0579C244.89 78.8883 249.039 75.5667 249.039 69.7539Z" fill="#292929"/>
<path d="M276.424 34.8767H295.51V42.3503C298.829 37.3679 303.808 33.2159 312.107 33.2159C323.724 33.2159 331.193 40.6895 331.193 53.9759V90.5134H312.107V59.7886C312.107 53.9759 308.787 50.6543 304.638 50.6543C299.659 50.6543 296.34 53.9759 296.34 59.7886V89.683H277.254V34.8767H276.424Z" fill="#292929"/>
<path d="M340.32 6.64386H359.406V53.1461L374.342 34.8774H395.918L376.832 57.2981L396.748 90.514H375.172L365.214 71.4149L360.236 77.2277V90.514H340.32V6.64386Z" fill="#292929"/>
<path d="M395.917 62.2798C395.917 45.6719 407.535 33.2159 424.131 33.2159C443.217 33.2159 452.345 47.3327 452.345 63.1102C452.345 63.9406 452.345 65.6014 452.345 67.2622H415.003C416.663 73.075 420.812 76.3966 426.621 76.3966C431.6 76.3966 434.919 74.7358 439.068 70.5838L449.856 79.7182C444.877 86.3614 436.579 91.3438 425.791 91.3438C408.365 91.3438 395.917 79.7182 395.917 62.2798ZM433.259 58.1279C432.43 52.3151 429.11 48.1631 423.302 48.1631C418.323 48.1631 415.003 52.3151 413.344 58.1279H433.259Z" fill="#292929"/>
<path d="M456.494 62.2805C456.494 44.0118 467.281 33.2166 480.558 33.2166C488.857 33.2166 493.836 37.3686 497.155 41.5206V6.64386H516.241V89.6837H497.155V82.2101C493.006 87.1925 488.857 90.5141 480.558 90.5141C467.281 91.3444 456.494 80.5493 456.494 62.2805ZM497.985 62.2805C497.985 54.8069 493.006 49.8246 486.367 49.8246C479.729 49.8246 474.75 54.8069 474.75 62.2805C474.75 69.7541 479.729 74.7365 486.367 74.7365C493.006 74.7365 497.985 69.7541 497.985 62.2805Z" fill="#292929"/>
<path d="M541.965 73.0752C541.965 73.0752 541.965 72.2448 541.965 73.0752L536.156 70.584C535.326 69.7536 533.667 70.584 532.837 71.4144L525.368 78.888C524.539 79.7184 524.539 80.5488 524.539 81.3792C524.539 86.3616 527.858 88.0224 527.858 88.0224C527.858 88.0224 527.858 88.0224 528.688 88.0224L533.667 90.5136H534.496H535.326L540.305 88.0224C540.305 88.0224 540.305 88.0224 541.135 88.0224C541.135 88.0224 544.454 85.5312 544.454 80.5488C545.284 75.5664 542.795 73.0752 541.965 73.0752Z" fill="#292929"/>
<defs>
<linearGradient id="paint0_linear" x1="76.5521" y1="53.0948" x2="39.7804" y2="16.3487" gradientUnits="userSpaceOnUse">
<stop offset="0.0592972" stop-color="#FFCB1B"/>
<stop offset="0.8365" stop-color="#FFFF9F"/>
</linearGradient>
<linearGradient id="paint1_linear" x1="16.2443" y1="29.7219" x2="16.2443" y2="91.3441" gradientUnits="userSpaceOnUse">
<stop stop-color="#FFFF64"/>
<stop offset="0.8365" stop-color="#FF9300"/>
</linearGradient>
<linearGradient id="paint2_linear" x1="33.9364" y1="91.3438" x2="33.9364" y2="45.6802" gradientUnits="userSpaceOnUse">
<stop offset="0.1851" stop-color="#F15C52"/>
<stop offset="0.8365" stop-color="#FFC833"/>
</linearGradient>
<linearGradient id="paint3_linear" x1="100.114" y1="91.3441" x2="100.114" y2="29.7219" gradientUnits="userSpaceOnUse">
<stop stop-color="#F7931E"/>
<stop offset="0.4875" stop-color="#FBB03B"/>
<stop offset="1" stop-color="#FFFF64"/>
</linearGradient>
<linearGradient id="paint4_linear" x1="82.4222" y1="91.3438" x2="82.4222" y2="45.6802" gradientUnits="userSpaceOnUse">
<stop offset="0.1851" stop-color="#F15C52"/>
<stop offset="0.8365" stop-color="#FFB533"/>
</linearGradient>
<linearGradient id="paint5_linear" x1="9.69406" y1="76.4375" x2="106.665" y2="76.4375" gradientUnits="userSpaceOnUse">
<stop offset="0.2472" stop-color="#FF7BAC"/>
<stop offset="0.765" stop-color="#F15A24"/>
</linearGradient>
</defs>
</svg>
